<svg xmlns="http://www.w3.org/2000/svg" width="20.617" height="20.606" viewBox="0 0 20.617 20.606">
  <g id="svgexport-17_4_" data-name="svgexport-17 (4)" transform="translate(20.617 0) rotate(90)">
    <g id="_19" data-name="19">
      <path id="Path_40" data-name="Path 40" d="M1.481,0A1.472,1.472,0,0,0,.436,2.518l7.8,7.788-7.8,7.788A1.472,1.472,0,0,0,2.511,20.17l8.833-8.833a1.472,1.472,0,0,0,0-2.076L2.511.427A1.472,1.472,0,0,0,1.481,0Z" transform="translate(8.833 0)" fill="#fff"/>
      <path id="Path_41" data-name="Path 41" d="M1.481,0A1.472,1.472,0,0,0,.436,2.518l7.8,7.788-7.8,7.788a1.478,1.478,0,0,0,2.091,2.091l8.833-8.833a1.472,1.472,0,0,0,0-2.076L2.526.442A1.472,1.472,0,0,0,1.481,0Z" fill="#fff"/>
    </g>
  </g>
</svg>
