<svg id="Group_4" data-name="Group 4" xmlns="http://www.w3.org/2000/svg" xmlns:xlink="http://www.w3.org/1999/xlink" width="87.504" height="74.84" viewBox="0 0 87.504 74.84">
  <defs>
    <linearGradient id="linear-gradient" x1="0.5" x2="0.5" y2="1" gradientUnits="objectBoundingBox">
      <stop offset="0" stop-color="#a3a5a8"/>
      <stop offset="1" stop-color="#f7f8f8"/>
    </linearGradient>
    <linearGradient id="linear-gradient-2" x1="0.177" y1="0.039" x2="1" y2="1" gradientUnits="objectBoundingBox">
      <stop offset="0" stop-color="#ccab5e"/>
      <stop offset="1" stop-color="#d6b566"/>
    </linearGradient>
  </defs>
  <path id="Path_4" data-name="Path 4" d="M0,0V41.083A34.007,34.007,0,0,0,5.721,60.2C15.055,73.788,31.681,74.84,36.56,74.84c.62,0,1.085,0,1.3-.027H40.55A40.369,40.369,0,0,1,13.04,58.4,30.3,30.3,0,0,1,7.325,41.177V6.854H29.342a30.981,30.981,0,0,1,15.076,3.916A24.37,24.37,0,0,1,57.351,30.825V47.977l7.13,7.2V30.846a31.951,31.951,0,0,0-1.82-10.021,30.036,30.036,0,0,0-14-16.747A33.155,33.155,0,0,0,32.766,0Z" transform="translate(0.001)" fill="url(#linear-gradient)"/>
  <path id="Path_5" data-name="Path 5" d="M98.638,74.84V33.757a34.007,34.007,0,0,0-5.722-19.113C83.576,1.058,66.957,0,62.071,0c-.62,0-1.085,0-1.3.027H58.081a40.345,40.345,0,0,1,27.51,16.417,30.379,30.379,0,0,1,5.715,17.212v34.33H69.289A30.981,30.981,0,0,1,54.213,64.07,24.37,24.37,0,0,1,41.28,44.014V26.863l-7.13-7.2V43.994a31.951,31.951,0,0,0,1.82,10.021A30.05,30.05,0,0,0,49.96,70.762a33.285,33.285,0,0,0,15.918,4.071h32.76Z" transform="translate(-11.135)" fill="url(#linear-gradient-2)"/>
</svg>
