<svg xmlns="http://www.w3.org/2000/svg" width="106.678" height="72.043" viewBox="0 0 106.678 72.043">
  <path id="Path_45" data-name="Path 45" d="M106.686,7.46c0-.584-.292-.195-.487-.1V6.876h0a25.432,25.432,0,0,0,0-2.725V3.275s0-.195-.195-.1V3.47h-.292s-.1-.292-.292-.1c-.195.1,0,.292,0,.389h0s-.292.1-.389,0c-.195-.195-.292-.389-.584-.487-.195-.1-.195,0-.195.195-.389.292-1.071.292-.973.973-.195-.292-.584-.292-.779-.681,0-.195-.195-.292-.389-.292s-.292.195-.292.389a1.446,1.446,0,0,0,.195.876h0c-.1.584-.681.876-.487,1.557a.191.191,0,0,1-.195.195c-.1,0-.195-.195-.292-.292V4.93a3.081,3.081,0,0,1-.779-1.168q-.681.584-.292.973a1.234,1.234,0,0,1-.584.195c0-.389-.487-.292-.779-.389,0-.195-.292-.195-.292-.292a1.882,1.882,0,0,0,0-1.265c0-.292,0-.681-.487-.681-.292,0-.487-.487-.779-.292-.487.389-.681-.292-.973-.195-.292.195-.487.584-.876.584H93.451c-.195-.1-.389,0-.487.292-.1.487.1.973-.195,1.362V3.859a2.1,2.1,0,0,0-.195-1.071c-.1-.389-.389-.681-.779-.584a3.905,3.905,0,0,1-1.46-.292v.779h-.389a.3.3,0,0,1-.195-.1C89.266,1.816,88.585,2.4,88,2.2c-.1,0-.584.292-.389.584h0v.195h0v.195a1.049,1.049,0,0,1-.195.779c-.292-.292-.584-.487-.876,0,0,.195-.292,0-.389,0,0,0-.1-.195-.195-.195A2.445,2.445,0,0,0,85.373,2.4h0V2.2a1.049,1.049,0,0,0-.195-.779l-.195-.195c-.195,0-.389.292-.584,0,0-.1-.1-.292-.292-.1-.389.584-.779,0-1.168,0-.487.195-.876.389-1.362.584H80.7a1.9,1.9,0,0,0-.779.1c-.195.195.1.487,0,.681h0c-.195.1,0,.487-.292.584,0-.195-.195-.389-.292-.584-.487-.876-.487-.876-1.46-.779-.681,0-.584.584-.876.973h0a.3.3,0,0,0-.195.1h0c-.292-.195-.389-.876-.973-.292-.195.195-.292,0-.389-.1a.47.47,0,0,0-.681,0c-.1,0-.195-.195-.195-.389.1-.195,0-.292-.195-.389A1.067,1.067,0,0,0,73.6.453c-.292-.292-.681,0-.973-.195h0c0-.1-.195-.292-.292-.195-.195,0,0,.292,0,.487H70.58c-.195,0-.487.292-.681,0-.195-.195-.389,0-.584,0h0a1.656,1.656,0,0,0,.195,1.362c-.1.195,0,.584-.389.487L68.926,2.2c0-.584-.389-1.071-.487-1.654A3.888,3.888,0,0,1,66.59.745c-.389,0-.1.389-.195.584h0c-.195.1-.195.292-.195.487a1.343,1.343,0,0,1-.292-.389c-.681-.779-1.362-.779-2.141,0h0c-.195,0-.292.195-.292.389V3.178a2.123,2.123,0,0,0-.487.389c-.292-.389-.584,0-.779,0a.191.191,0,0,0-.195-.195V2.983a1.99,1.99,0,0,0,0-1.071c0-.487-.195,0-.389,0h0a.65.65,0,0,0-.973,0c-.195,0-.195-.292-.389-.195-.195-.1-.389-.195-.389.195h0s-.584,0-.779.195H58.9c-.1-.1-.195-.195-.389,0-.195.1-.389.292-.584.292-.389-.195-.876,0-1.362,0-.292,0-.195.195,0,.389,0,.1,0,.292-.195.292,0-.1-.195-.195-.292-.195V2.5h-.195c-.389.195-.876-.195-1.362.195a1.2,1.2,0,0,0,.389.779h0s0-.584-.389-.779c-.195,0-.584,0-.389.389-.1.195-.195.487-.487.584-.292,0-.195-.195-.389-.389-.1-.195-.292-.195-.487-.1a2.766,2.766,0,0,0-1.168.389s-.195,0-.195.1c-.195,0-.389,0-.389.292V5.027h0v.195l-.195.195c-.1,0-.195.195-.195.292a.579.579,0,0,0-.292.973v.292c-.1,0-.195.1-.389.195,0-.195-.195-.195-.389-.195h0a2.6,2.6,0,0,0-.195-1.362,5.871,5.871,0,0,0-.584-1.849h0s-.681.1-.973-.195-.876-.195-1.168-.487a.34.34,0,0,0-.1.195c-.1,0-.195.292-.389.195-.292-.195-.195.1-.195.195h0c-.779-.1-1.362.389-2.141.292h-.487V5.124a.355.355,0,0,1-.487-.195.389.389,0,0,0-.195-.389h0V4.346h0c-.195-.292-.487-.195-.779,0a.715.715,0,0,0-.584.195h-.1c-.195,0-.487-.389-.584.1-.292.195,0,.487-.195.779h0a.191.191,0,0,0-.195.195h0a5.764,5.764,0,0,0-.584-.389c-.195-.1-.389-.195-.487,0-.292.292-.779.292-1.071.681h-.195a8.818,8.818,0,0,0-1.071-2.141c-.1-.1-.195-.292-.292,0h0a4.3,4.3,0,0,0-1.946.195h0c-.195-.292-.389,0-.584,0a6.428,6.428,0,0,0-2.336.292h0c-.1,0,0,.195,0,.195,0,.195.195.584-.1.681-.292,0-.389-.195-.584-.389h0c-.195-.292-.389-.195-.584,0h0V4.93h0V4.735H29.317s-.584,0-.584.389v.681h-.389c-.389-.681-.876-.487-1.362-.195a.358.358,0,0,1-.292-.1V4.54c0-.195-.195-.195-.292,0-.195.487-.292.195-.487,0-.195-.292-.195.195-.292,0H25.23s-.389-.195-.389.1a.481.481,0,0,0-.292.1c-.389,0-.292.487-.487.681-.292.292-.487-.487-.779-.1H22.018c-.195-.779-.292-.973-.973-.779-.584.195-1.168,0-1.752.195a6.6,6.6,0,0,1-3.114.584l-.1.1v.779h0V6H15.79c-.1,0-.195,0-.195-.195h0A4.227,4.227,0,0,0,14.33,6l-.195.195c-.1,0-.195-.195-.389-.1h-.195a3.146,3.146,0,0,0-.292-1.654,4.885,4.885,0,0,0-.195-1.168h0s-.1-.584-.195-.973c0-.1,0-.389-.195-.292-.292.1-.779-.292-.779.292L11.7,2.5c-.584-.1-1.168,0-1.362.584,0,.1-.195.195-.292.389-.195.195-.681,0-.779.389-.487-.1-.195-.779-.681-.876V4.346a2.632,2.632,0,0,1-1.46-.292c0,.487,0,1.071-.681.487-.1,0-.389,0-.487.1h0l-1.07-.1h0s-.292.292-.487,0c-.1-.1-.292-.195-.389,0a.241.241,0,0,0-.1.389h-.1s0,.487-.292.584a1.4,1.4,0,0,0-.195-.292c0-.195,0-.292-.195-.389,0-.389-.292-.292-.487-.195-.292.1,0,.292,0,.389-.195.195-.1.584-.584.584-.292-.195-.195,0-.195.195-.292,0-.584,0-.389.487a6.958,6.958,0,0,1,.292,2.433c0,.195.1.389.292.389h.1v.973c0,.389-.195.876.195,1.265v.681c.1,0,.1.195,0,.292v.389c-.195.389.1.779-.1,1.168,0,.292.195.487.1.779a.715.715,0,0,0,.195.584h.195v.779s.195.1.1.195h0a.3.3,0,0,0,.1.195h0v-.195h0v.195h0a1.386,1.386,0,0,1-.195.389c-.487.584-.584.584-.195,1.168.1.195.195.292,0,.389h-.1v1.168h0V20.4a21.948,21.948,0,0,0,0,2.53c.1.389.389.779,0,1.168,0,0,.195.195.292.195.1.195.389.389.292.779h0c-.681.195-.389.681-.389,1.168v.389c0,.195.195.195.389.195-.389.389,0,.779,0,1.265h0v.292h0c-.292,0-.584.292-.487.487.292.389,0,.779.292,1.071a1.861,1.861,0,0,1,0,1.752c-.1.195-.389.389,0,.681a.519.519,0,0,1-.195.876c-.195.1-.292.195,0,.292.195.1.195.292.195.487a15.768,15.768,0,0,1-.1,2.141V38.31h0c-.292.292-.195.584-.195.973,0,.292-.292.584-.195.973,0,.389-.389.779,0,1.168h0v.195c0,.292,0,.487.292.584,0,.584-.681.973-.487,1.654-.195.195-.292.195-.389,0,0-.1-.1-.292-.292-.195a.3.3,0,0,0,0,.389c.1.292.487.195.681.389,0,.292.292.487,0,.779-.1,0-.195.292-.1.389.292.487.1,1.071.389,1.46h0s-.1.195-.195.195H2.068l-.195-.195v-.195c0-.195.1-.292,0-.389-.195,0-.195.1-.195.195v.292H1.484s-.292-.1-.292,0a2.842,2.842,0,0,0,.195.876c.292,0,.389-.389.681-.292v.779l-.389.389s-.292,0-.389.195a.757.757,0,0,0-.195.779h.1s.292,0,.389.195h0s-.779,0-.779.584a4.286,4.286,0,0,1-.195,1.557h0s0,.292.1.389H.9v.292h0a.3.3,0,0,1-.1.195h0V53.3c0,.292-.195.681.195.973H1s-.1.584-.195.973q-.487.292-.195.973s-.487,0-.389.389c-.292.1-.195.389-.195.584l.195.195H.608a3.827,3.827,0,0,1-.195.584h0v.584a1.383,1.383,0,0,0-.195.584v.389a.738.738,0,0,1-.195.389h0v.195a.729.729,0,0,0,.1.487,8.775,8.775,0,0,0,.584-2.141v-.195c.292.195,0,.584.292.779a2.748,2.748,0,0,0,.195-1.752h0a7.286,7.286,0,0,1,.195-2.044l.195-.195c0-.681.292-.389.584-.195a.454.454,0,0,1,.487.584c-.1,0-.1.195,0,.292v.487h.1a1.427,1.427,0,0,1-.389.195c-.584,0-.292.389-.292.584a.389.389,0,0,1-.195.389c0,.389-.195.681.195.973.1.389.292.876,0,1.265a16.95,16.95,0,0,0-.487,2.141v.584a1.252,1.252,0,0,0-.1,1.168h0a10.672,10.672,0,0,0,.779.973v.973c0,.292-.1.487.1.681.292.195.389-.195.584-.292.1,0,.292-.195.389-.292,0-.292-.389-.487-.292-.876.292,0,.584-.292.584.195v.973c0,.195,0,.487.195.584v-.389c.292-.195.195-.487.195-.779A2.671,2.671,0,0,1,4.209,64c.195-.1,0-.487.292-.584a2.591,2.591,0,0,1,.292,1.168v1.168h0c-.1,0-.195.292-.1.389.195.195.195-.1.292-.195,0,.292-.195.584.195.779.195,0,.292.195.584.195h0l.195.195c.389,0,.389,0,.389-.681a6.53,6.53,0,0,0,.584-2.725c.195-.195.1-.487.1-.779v-.389h0l.195-.195a.3.3,0,0,1,.1-.195.481.481,0,0,0,.1.292v.779h0v.195a5.989,5.989,0,0,1-.195,1.849c0,.292-.389.681,0,.973.487,0,.1-.292.195-.389,0-.195.195-.292.389-.389,0,.1,0,.292.195.292s.1-.1.195-.195a2.153,2.153,0,0,0,.487-2.141v-.195c.389.1.292-.292.389-.389.389-.195,0-.779.389-.973.1.195,0,.487.1.779a1.234,1.234,0,0,1-.1.584h0V64h0v.389a.3.3,0,0,1,0,.389h0v1.265a.847.847,0,0,0,.389-.876h.292c.195.195.389.292.389.584,0,.195.195.195.389.195l.195-.195c.487.292.389-.1.389-.389h0a.76.76,0,0,0,0-.487v-.1a10.475,10.475,0,0,0,.389-4.574.311.311,0,0,0,.292-.292c.1-.389,0-.389-.292-.292v-.292h.195c.1,0,.292,0,.292-.1,0-.681.487-1.265.195-2.044-.1-.292,0-.292.292-.389a1.4,1.4,0,0,1,.195-.292v.1s-.195,0-.195.1v5.742a8.323,8.323,0,0,0,0,1.557v1.265h.195c0-.584.389-1.071.292-1.654h0a1.442,1.442,0,0,0,.292.876c.1-.195.292-.292.292-.487a.365.365,0,0,1,0-.584h.195a8.558,8.558,0,0,1,.973-.584h0v.779c0,.195,0,.292.195.389H15.5c.1,0,.195-.1.292-.195h0c0,.292.389.195.389.487-.195,0-.292,0-.389.195h0a1.961,1.961,0,0,0-.195.584c0,.292-.195.681.292.779,0,.1,0,.389.195.389v-.389h0a1.386,1.386,0,0,1,.195-.389v-.487h0a1.4,1.4,0,0,1,.195-.292c.1,0,.195.1.292.195h0c.1,0,.195-.1.292-.195h0c-.1,0-.292,0-.292.1h0v.389s-.1.195-.195.195c.1.195.1.584.487.487h.389v.584c0,.195,0,.292.1.389,0,.195-.195.389,0,.487.195,0,.195-.292.292-.389l.1-.1c.292,0,.389-.195.292-.389v-.195a.921.921,0,0,1-.292-1.071c.195-.389,0-.681-.1-1.071h0v-.195c0-.1,0-.195-.1-.195v-.389h0c.389-.487-.292-1.071.195-1.557.1,0,.292,0,.292-.195h.1v.389a1.6,1.6,0,0,1,.195.973h0v.195a8.323,8.323,0,0,0,0,1.557c0,.195.195.1.292.1h.1c0,.195,0,.389-.195.487-.584.1-.389.487-.292.876.389-.1.292-.389.292-.681.292.195.1.584.195.779h0c0,.1,0,.292.195.292s.195-.1.195-.195v-.292c.195-.195.1-.487.1-.681a1.446,1.446,0,0,1,.195-.876c.292.195.292.487.195.876a3.992,3.992,0,0,1-.1,1.071c0,.195.1.195.292.195s0-.195,0-.292a.877.877,0,0,1,.487.1s.195,0,.195-.1c0-.195-.1-.195-.292-.195,0-.389.292-.779,0-1.168h0a1.961,1.961,0,0,0,.195-.584h0c.195,0,.1-.195.195-.195h0c.195,0,.195-.292.292-.389v-.389c-.1,0-.1-.292-.195-.389h0a.389.389,0,0,0,.195.389v-.389a10.131,10.131,0,0,0,.584-1.557.738.738,0,0,1,.389.195v.876a1.755,1.755,0,0,0-.195.973v.292s.195,0,.195-.1a.929.929,0,0,1,.195.973v1.46c0,.292,0,.584.292.584,0,.292-.195.487-.1.876.195,0,.292-.195.487-.292.487,0,.389-.292.487-.584.1,0,.195-.195.292-.292,0,0,.195.195.292.195v.389a.34.34,0,0,0-.1.195v.195c.1,0,.1-.1.1-.195h.195c.389,0,.681-.584,1.168,0,0,0,.195-.1.195-.195,0-.195.1-.292.195-.487a.715.715,0,0,1,.195-.584c.195.292.584,0,.779.195,0,.195.195.389.195.584v.195l.195.195h0a.961.961,0,0,1-.195.584.715.715,0,0,0-.584.195h0a1.961,1.961,0,0,0-.195.584l.195.195c.195,0,.195.584.584.195-.1-.195,0-.292.195-.292v-.195c0-.487.389-.876.389-1.362.1,0,.292-.195.389-.195h.195a1.147,1.147,0,0,0,1.654-.292c.1-.195.389-.292.487-.389.1,0,.195.195.292,0h.195c.195,0,.1.389.389.389s.195-.292.292-.487A13.779,13.779,0,0,0,31.75,64.1h0s.292-1.071.487-1.557h.389v.779c-.1.195-.292.389,0,.584.195-.1.195-.389.195-.584h0a1.961,1.961,0,0,0-.195.584h0V64c-.195.292-.1.681-.195.973h0a.68.68,0,0,0-.195.389h-.1c0,.1-.1.292,0,.389.1,0,.195,0,.195-.195v-.292h.195c.1,0,.195,0,.195-.195h.292a.6.6,0,0,1,.389.195c.292,0,.584,0,.389-.487,0-.1-.1-.292,0-.389h.292A1.816,1.816,0,0,0,34.378,64h0v.876c0,.292.195.195.292,0h.195c.195,0,.195-.195.292-.292h.1a.98.98,0,0,0,.1.292c.195,0,.292-.292.292-.487a10.724,10.724,0,0,1,.195-1.752c.195-.389.1-.779.389-1.168v-.195h0v.195c.292,0,.487-.487.876-.195v.195c-.292.195-.195.487-.195.779a3.262,3.262,0,0,1,0,.973v1.071c-.1,0-.195.1-.1.195v.292c-.1.292-.292.487-.195.876h0v.389h0s-.1.292,0,.389h.195s0,.973.389,1.265c0,0-.195,0-.195.1,0,.195.195,0,.292.1h.195c.195.195.389.292.292,0,0-.292-.1-.487,0-.681.292.195.1.487.195.779h0v.292a.949.949,0,0,0,.195.779,1.309,1.309,0,0,0,.195-.779V67.9h0s.292-.389,0-.584c-.195,0-.1,0,0-.195,0-.195-.195-.195-.389-.195v-.195c0-.195,0-.292-.195-.389h0c0,.195,0,.292.195.389.292,0,.389-.1.389-.389a5.1,5.1,0,0,0,.195-1.752c0-.195,0-.487-.195-.584h0s.584-.487.389-.876c0-.1.1-.292,0-.389h-.195v-.1c.584-.1.584-.195.389-.584h0a.715.715,0,0,1,.389-.779c.389.195,0,.779.389.973a17.477,17.477,0,0,1-.195,2.141h0a7.567,7.567,0,0,1-.1,1.265c-.195.487.292.292.389.487v.195a2.694,2.694,0,0,1-.1.876.258.258,0,0,0,.292.292.715.715,0,0,1,.195-.584c.195,0,.389-.1.584,0h.487a.585.585,0,0,1-.1.389c-.487,0-.681.1-.584.584,0,.195.1.292.389.292v.195h0c-.584.1-.389.584-.389.876s.389.1.487.292h0v.195c-.292,0-.389.195-.487.389v.195H40.9l.195-.195s.1-.195.195-.195h0s.487-.389.389-.779c-.1-.1,0-.292,0-.389,0-.292-.195-.487,0-.779,0-.195,0-.292.1-.389a.209.209,0,0,0-.195-.195V66.63h0a3.131,3.131,0,0,1,.389-1.557c.584-.389.292-1.071.487-1.557a.442.442,0,0,1,0-.487v-.195h.389v.584h0v3.017c-.195.1-.1.195,0,.292h0a.76.76,0,0,1,0,.487c-.1,0-.195,0-.195.195V67.6h0v.389h0a.3.3,0,0,0,.1.195c0,.584,0,.584.584.389,0,.195,0,.292.195.389v.195h-.195v.1h0v-.1c-.195,0-.389-.292-.584,0h0s-.1.487-.195.779c-.1,0-.195,0-.195.292,0,.195.1.195.292.195.1.1.292.195.195.389-.584.1-.292.584-.389.973l.195.195c.195,0,.195-.292.195-.389.1-.195.292-.1.389,0,0,.195,0,.389.195.292.195,0,.1-.195,0-.389-.195-.487.1-.681.389-.973v-.779c.195.1.1.389.195.584v.487c0,.195.1.195.195,0,.584-.1.681-.487.681-.973v-.195h.292v.389c0,.195,0,.292.195.389a6.376,6.376,0,0,0,0,1.362c-.195,0-.292.195-.1.292h.292v-.292h0a3.441,3.441,0,0,0,.1-.584.738.738,0,0,1,.195-.389c.195,0,.487,0,.487-.292s-.195-.195-.389-.292h0c0-.292,0-.487.292-.681V69.16h-.1c0-.292.195-.487.389-.779h.389c.487-.292.292-.876.487-1.362v-.195L48,66.63a3.968,3.968,0,0,0,.195.681V67.6c.1,0,.1-.195.1-.292a.738.738,0,0,1,.195-.389h0s.292-.292.195-.584c.1,0,.1,0,.1-.195a1.383,1.383,0,0,1,.195-.584h0c.487-.389.292-.973.389-1.46,0,0,0-.195.1-.195h.195c0,.195.1.389.292.389v.584c.1-.1.1-.292.195-.389h0a.389.389,0,0,1-.195.389v1.071h0c.195-.1,0-.195,0-.292a.458.458,0,0,0-.1.584v.195c.292.292-.1.487-.195.779v.195c0,.292-.292.876,0,.876.584.1,0-.584.389-.779h0c.195-.195.195-.584.584-.584.195,0,.195-.487.389-.1h0V67.7c0,.1,0,.195.195.1.1,0,.195.389.292.292.195-.1.487-.389.195-.681v-.195c.389,0,.584.1.584.584l-.195.195c.584.195.681.195.779-.584h0a1.049,1.049,0,0,0,.195-.779h0c.195-.195,0-.584.389-.681,0,.292-.195.584,0,.876-.1.1,0,.292-.195.389v.195c.195,0,.292.195.389,0,0-.195.1-.292.195-.487.195-.1.195-.389.195-.584a.585.585,0,0,1,.1-.389,2.509,2.509,0,0,0,.681-2.141h0a.506.506,0,0,0,.195-.389,1.132,1.132,0,0,0,.195-.973,10.154,10.154,0,0,0,.779-2.433c.1-.389,0-.876.389-1.168.487,0,.195-.487.584-.584.292.292,0,.681.195.973a2.29,2.29,0,0,1-.195.779c0,.1-.195.195-.195.292a15.844,15.844,0,0,1-.779,4.282v.389c0,.195-.292.389-.1.681.292-.1.292-.389.292-.681.389-.292,0-.876.389-1.168.487.1.584.584.584.973a3.949,3.949,0,0,1-.389,1.849c0,.195-.195.389,0,.487a.355.355,0,0,0,.487-.195v-.487a13.482,13.482,0,0,0,.973-3.212.757.757,0,0,0,.195-.779h0v-.1c.1-.195,0-.487.195-.584l.195-.195a.389.389,0,0,1,.195.389h0c-.1.779-.292,1.654-.389,2.433a1.049,1.049,0,0,0-.195.779v.195a6.22,6.22,0,0,0-.389.973v.195h0a4.01,4.01,0,0,0,.195-.876c.195,0,.195-.292.195-.389.1-.292.389-.487.389-.779,0-.195,0-.487.195-.584v.681a4.48,4.48,0,0,0,.973-1.752.458.458,0,0,0,.1-.584c0-.292.195-.487.195-.779h0V60.5h0a4.469,4.469,0,0,1,.1-.973c.1-.195.389-.389.292-.779.195,0,.292-.195.389-.389,0-.584.195-1.168.195-1.752a.585.585,0,0,0,.1-.389c0-.292.195-.195.389,0-.195,1.168-.1,2.336-.195,3.5v.389h0a11.676,11.676,0,0,0-.292,1.946s0,.195.1.195c0,.292-.389.779,0,.779s.389,0,.292.292v.389c.195-.389,0-.779,0-1.265,0,.389.195.779,0,1.265,0,.389.292.584.681.681.1-.487.195-.876.292-1.265.195,0,.389-.292.584,0h0v1.362s0,.292.1.292.1-.1.1-.195v-.195a.715.715,0,0,0,.195-.584h.389a.6.6,0,0,0,.681.195v.584c0,.1-.195.292-.195.389,0,.292.1.195.292,0,.292,0,.292-.389.389-.584h0s.292-.1.389,0c0,.195,0,.292.195.292v.681l-.292,1.46c.292-.389.876-.584.779-1.168,0-.389.292-.779.195-1.168.195-.1.1-.292,0-.389h0a.3.3,0,0,1,.1-.195,2.036,2.036,0,0,1,.389.584c0,.195.195.292.389.292.195.681-.195,1.362-.1,2.141a2.419,2.419,0,0,1-.1.779h0c-.195.1-.195.292-.195.487h0v.195c0,.1-.1.292,0,.292s.195,0,.195-.195V67.9h0a1.465,1.465,0,0,0,.1-.779h0a3.879,3.879,0,0,1,.292-.389c.1-.1.195-.389.389-.389,0,.195.195.292.389.389l.195-.195a1.383,1.383,0,0,1,.195-.584h.195v-.195h0v.195c0,.1.1.195.292.195s.195-.195.195-.389c.1-.1.195-.292.389-.389v.584h0v.195c0,.292,0,.292.292.292a.213.213,0,0,0,.292.1c.195,0,.389-.487.584-.195.584.584.389-.1.487-.292v-.584h0a8.544,8.544,0,0,0,.681-2.238c.195-.1.292-.292.487-.195.1.195,0,.389,0,.584a3.608,3.608,0,0,0-.389,1.362c0,.389,0,.487.195.292.195,0,.292-.195.389,0,0,.292.292.292.487.292l.195.195c.195.681.292.1.389,0a2.624,2.624,0,0,0,.681-.779v.195c0,.195.292.195.389.292.292.292.292.292.487,0a.481.481,0,0,1,.1-.292v-.195c.195,0,.1.195.195.389.389.195.973,0,1.071.584.1,0,.195-.1.195-.292.195.195.389.1.584,0,0,.1,0,.389.195.292.1,0,.195-.195.195-.292v-.389c.292-.292.195-.876.779-.973.195,0,.195.487.487,0,.292-.292.195-.779.487-1.071a.715.715,0,0,0,.584-.195c.389-.389.973-.681,1.168-1.362v-.195a.3.3,0,0,1,.1-.195h0s.389-.389.389-.681v-.389a3.288,3.288,0,0,0,.584-1.946c.195-.292.389-.681.584-.973h.389c0,.1,0,.195.195.195h0a2.338,2.338,0,0,0,.195.973v.584a2.094,2.094,0,0,0,0,.779c.195-.195.195-.389.292-.389v.195a14.765,14.765,0,0,1-.292,2.044c-.1.681-.389,1.265-.487,2.141.389-.389.584-.876.973-1.071h.1c.195.584-.292,1.071-.389,1.654a3.541,3.541,0,0,0,1.46-1.168h.195v.584a.585.585,0,0,0,.1.389.135.135,0,0,1,.195,0l.195.195v.195h0v.195h0a1.383,1.383,0,0,0,.584-.195c.292,0,.389-.389.584-.487.1,0,.195-.195.195-.292h0a1.709,1.709,0,0,1,.389-.487c.195,0,.195.195.195.389V64.2c.389-.195.584.487.973.1h0s.487-.389.779-.584c.195,0,.195.292.195.389s.1.1.195,0c.292,0,.389-.195.584-.292.292,0,.389-.292.389-.584.1,0,.195-.195.292-.195s.195,0,.195-.195c.389.1.292.487.389.779v.292a2.994,2.994,0,0,0,.876-.389c.195-.1,0-.389,0-.681.1-.195.292-.389.389-.584a1.337,1.337,0,0,0,.779-.487c.1-.292.389-.487,0-.779h0a5.667,5.667,0,0,1,.292-1.362c.584-1.071.292-2.336.876-3.406.1-.195,0-.487,0-.681a19.148,19.148,0,0,1,.584-3.406h.195a1.628,1.628,0,0,1,0,2.141c.1.195.487,0,.487.389-.1.195-.389.292-.389.487s-.292.487,0,.681c.292.292.195.584.1.876a15.3,15.3,0,0,0-.389,2.238c0,.292.195.1.292.1h0v.584c-.1.195-.292.487.195.584,0,.487-.487.876-.195,1.362v.195a2.116,2.116,0,0,0,.195.973c0-.487.292-.681.195-.973V61.57a1.2,1.2,0,0,0,.389-.779c0-.195,0-.487.389-.487a4.817,4.817,0,0,1,0,2.044,1.51,1.51,0,0,0,.1,1.557,1.729,1.729,0,0,0,.389-.973c.292-.292.1-.584.195-.973h0V61.57c.292-.487.195-1.071.389-1.557.584.1.389.584.389.876,0,.876,0,.876.973.584a.62.62,0,0,1,0-.584c0-.195.1-.292.195-.487,0,0-.195-.195,0-.1.195-.1.195-.292.1-.487v-.1a.3.3,0,0,1,.1-.195h.389c0,.195,0,.389.292.389s.195-.292.292-.487c.292-.195.195-.487.195-.779a.458.458,0,0,0,.1-.584v-.584c0-1.265.389-2.53.292-3.893h0c0-.681.292-1.362-.292-1.946v-.389c.389,0,.292-.292.292-.487V49.6c.1-.195,0-.389,0-.584a.735.735,0,0,0,.1-.779V46c.292-.292.1-.487,0-.779.292-.195,0-.487,0-.779h0a6.3,6.3,0,0,0,.1-2.336h0a.3.3,0,0,0,.195-.1h0s0-.292.195-.292.195.1.195.292c0,.292-.292.487,0,.779h0a24.707,24.707,0,0,1,0,3.8c.1.1.195.292.389.195h0s0-.292.195-.389h0V46.1a7.286,7.286,0,0,1,.195-2.044.365.365,0,0,1,0-.584c0-.681.389-1.362-.1-1.946.487-.292.292-.584.195-.973a1.363,1.363,0,0,0,0-1.362V38.8h0a2.185,2.185,0,0,1-.1-.973,6.889,6.889,0,0,0,0-2.822h0a3.1,3.1,0,0,0,0-.973.62.62,0,0,1,0-.584v-.779c.1,0,.1-.195,0-.292v-.195a.191.191,0,0,0-.195-.195h-.1V31.5c.292,0,.584,0,.487-.389h0v-.389c0-.1-.195,0-.292-.195h0a1.019,1.019,0,0,0,.292-.584,1.234,1.234,0,0,0-.1-.584.736.736,0,0,1,.1-.389c-.195-.1-.292-.195,0-.389v-.389a39.077,39.077,0,0,1,.195-4.769h0v-.389c.195-.292-.1-.487,0-.779v-.779a6.549,6.549,0,0,0,.1-1.946,3.262,3.262,0,0,0,0-.973h0V8.725h0V7.655ZM106.1,32.179ZM68.537,62.445ZM35.643,61.57ZM12.189,5.806s.1-.195,0-.292h0ZM76.03,62.251v0ZM13.746,59.137ZM2.652,6.876Zm20.632.389V6.584h0Zm80.483,41.458h0v-.195h0ZM54.036,65.56ZM10.437,5.416v.195a.1.1,0,0,0-.1-.1h0Zm39.609,5.742v-.1h0Zm4.769-6.034Zm0-.779h0v.779h0Zm42.918,3.99Zm-68.707,0ZM69.218,6.195ZM70.97,3.762Zm29.39,35.522Zm-19.172,14.4h0v.1h0ZM68.926,59.039ZM27.955,57.677Zm-7.3,1.46a.3.3,0,0,0,.195-.1h-.195Zm-10.121.292Zm0-1.946ZM5.96,49.113ZM4.014,30.525Zm8.661,5.645Zm61.311-14.4h-.681c.195.195.487.1.681,0Zm.681-6.034Zm27.347-3.893Zm2.141,1.071h0v0ZM91.6,55.536Zm-6.812-8.078ZM67.174,53.1Zm29.293-5.547ZM73.987,28.189h0a.357.357,0,0,0-.1-.292h0A.48.48,0,0,0,73.987,28.189ZM95.494,11.937ZM70.483,54.173Zm0,0ZM81.188,9.8h0c-.195,0-.195.292-.195.389C80.994,10.088,81.188,9.893,81.188,9.8Zm14.4,39.317Zm-17.226.779h0Zm-9.537-3.309ZM92.38,21.377Zm4.963-4.769Zm-.681,17.615v.195h0v-.195ZM66.1,13.786Zm.584,28.9ZM66.3,33.931Zm1.168-15.084h0v.1h0ZM70,29.552Zm-.584,3.6Zm.584-3.5h0v0Zm0,0Zm-.584,0Zm0,.195Zm-1.557,2.53a1.712,1.712,0,0,0-.1-.584,1.234,1.234,0,0,0,.1.584ZM66.59,17.192ZM66.4,19.138h0v-.1h0Zm.779,5.936Zm.195,1.362Zm.292,7.98h0a.3.3,0,0,1-.195-.1h.292Zm-.389,2.141Zm0,0h0v-.1h0Zm2.53,7.3Zm3.114-8.467ZM70.58,37.142ZM70,28.968Zm-2.141-3.99v-.1h-.1ZM66.3,16.121h.195l-.195.195Zm.292,2.336Zm.584,21.8Zm4.769-.973Zm0,2.628Zm.292,0v.195h.1ZM65.52,36.072v.1l-.1.1v-.195Zm2.141,6.618ZM80.6,20.89Zm1.654,0Zm14.4,5.061ZM92.38,37.726ZM88.2,37.24Zm-3.7,2.725Zm-5.742,2.822ZM95.1,20.6ZM91.893,28.87l.1-.1v.1h-.1Zm.195-1.654h0Zm-.779,3.99h0Zm3.309-11.484Zm-2.336,5.839Zm-1.168,2.92ZM84.5,39.089h0s0-.1.195-.195A.191.191,0,0,0,84.5,39.089Zm1.071-5.353Zm-1.362-6.52v0Zm-8.953,11ZM80.8,27.7v0Zm.389-2.628ZM79.923,31.3Zm2.336-6.91h0c0,.195.1.195.195.195h0S82.356,24.394,82.259,24.394Zm-2.433-1.752Zm0,1.946Zm-2.044-2.141h0Zm0,10.51v0Zm0-10.51Zm2.628,8.467s-.1-.195,0-.195a.209.209,0,0,1,.195.195H80.41Zm0-9.148ZM77.1,26.729Zm1.46,14.306Zm2.53-10.413a1.4,1.4,0,0,0,.195.292h-.292a.481.481,0,0,1,.1-.292Zm1.557-5.353ZM83.913,38.7Zm1.071-2.336h0l.195-.195h0Zm7.688-16.447a4.415,4.415,0,0,0-.292.779V20.4h0a.743.743,0,0,1,.195-.487Zm-3.7,7.1Zm-.584-.389ZM88.2,20.89Zm-.487,6.91Zm-4.379-4.185ZM77.49,40.549Zm16.544-9.537Zm1.557,8.759ZM94.229,19.041a.3.3,0,0,0,.195-.1A.34.34,0,0,1,94.229,19.041Zm-3.6,8.175Zm-1.557-.779.1-.195A.3.3,0,0,1,89.071,26.437Zm-.487.195ZM84.3,23.81ZM83.719,24Zm-4.087-9.927h.1c.1,0,0,.195,0,.292,0-.1-.1-.195-.195-.292Zm-1.752,2.141h-.195a.135.135,0,0,0,.195,0v0Zm-6.812,8.369v0ZM68.05,12.229Zm-2.92,5.45h0v0Zm.487,13.43ZM67.953,42.3Zm6.715-.779h0v0Zm.487.292a.346.346,0,0,0-.195-.292C74.96,41.619,75.154,41.716,75.154,41.814Zm5.255,1.071Zm9.051-3.7h0c0-.195.195-.292.195-.584h0a.355.355,0,0,0-.195.487ZM91.6,45.8V46.1h0V46h0V45.8Zm.681-27.833Zm-7.1,3.017v-.195h0v.195Zm-8.272-4.282h0Zm-1.265,3.8Zm-2.725,3.017Zm-2.141-1.849a.48.48,0,0,0,.1.292A.357.357,0,0,0,70.775,21.669Zm-3.8,25.595Zm2.822,7.1v-.1h0v.195h0ZM72.624,49.5v0Zm3.212-3.6Zm1.46,1.071Zm1.946.779Zm4.574-3.8h0a.506.506,0,0,0-.195.389h0c0-.195.1-.292.195-.487Zm0,2.628Zm.389-1.168v.195h0Zm.779-1.654h0Zm8.467.487Zm3.212-28.32Zm-1.946.779ZM91.7,18.263Zm-.584,1.362Zm-3.893.779Zm-.1-.876Zm-.779,3.212ZM77.2,13.689Zm-.389.292ZM71.067,9.115s.195-.195.292-.195h0a.585.585,0,0,0-.389.1Zm-.195,0h0a.536.536,0,0,0-.195-.487A.536.536,0,0,0,70.872,9.115Zm-6.131,29.2h0V38.5h-.1v-.1Zm4.185,17.323v0h0v-.1h0Zm3.6-5.061Zm2.141-2.822Zm10.121-1.362Zm2.822-6.326Zm-.973,5.158Zm1.752-2.141Zm5.547,1.265h0Zm9.343-11.776v0Zm-2.92-4.282Zm1.071-4.379v-.292h0v.292Zm-.1-1.752v-.195h0v.195Zm0,1.071v.1h0Zm-1.362,3.309Zm1.752,1.362Zm.584.195Zm0-9.732Zm-1.946,9.927Zm.681,1.168Zm-.195-8.564Zm-.389-1.946ZM99.29,28.092Zm2.238,9.537h0a.3.3,0,0,1,.1-.195h0s-.1,0-.1.195Zm.973-9.148Zm-.389-11.776Zm-1.752,1.946ZM99,25.464Zm2.725-10.9Zm-.973,1.168v-.1h0Zm-1.168,3.017Zm-7.591-6.131Zm-13.333-.292Zm-.973-5.158ZM66.98,52.13h0a1.4,1.4,0,0,1,.195-.292h0l-.195.195h0Zm.973.292h0v0Zm5.353-2.044Zm0,0ZM90.531,42.69a.34.34,0,0,0-.1.195h0C90.458,42.836,90.434,42.787,90.531,42.69Zm2.433,4.769h-.1v-.1Zm1.752-.1Zm4.866-7.688ZM94.424,9.8h0Zm-11.97,1.946h-.1c-.195.292,0,.584,0,.779v-.779h.1ZM67.077,4.832ZM24.159,61.375ZM6.252,47.264ZM5.668,20.4a.481.481,0,0,1-.1.292h0a.481.481,0,0,1,.1-.292v0Zm.195,31.921Zm3.8-39.317h0v0Zm1.849,24.622ZM10.242,12.423ZM6.836,37.142a.34.34,0,0,0,.195.1h0a.3.3,0,0,1-.195-.1Zm0-5.061Zm-.681,7.4v-.292h0v.292Zm-.876,7.4Zm0,0Zm.681-3.7h0a.358.358,0,0,0,.292-.1h0A.481.481,0,0,0,5.96,43.176Zm.389-3.99ZM5.182,42.3ZM4.4,50.864Zm.195.681H4.89a.1.1,0,0,0-.1.1Zm1.557-7.688Zm3.6-11.776Zm0-5.839v0ZM6.739,24.1h0V24h0Zm-1.46-.195ZM3.625,43.76h.1v-.1h0v.1ZM4.209,49.5Zm.973,2.336Zm6.326-9.927Zm-.779-22.675v0Zm0-6.423Zm-3.7,7.007ZM5.182,26.34v.292c.1,0,0-.195.1-.389h0c-.1.1,0,.292-.1.487V26.34ZM4.5,37.629v0ZM5.571,49.21Zm2.822-1.46h0v0Zm0-1.752h0c0-.195,0-.292.195-.292v.1A.191.191,0,0,0,8.393,46Zm3.99-2.238ZM49.365,28.968Zm-.195-3.5s-.292-.1-.195-.292v-.195C48.976,25.172,48.976,25.367,49.17,25.464ZM46.932,62.543h0v0ZM26.008,56.7Zm18-42.042h0Zm17.809,5.255ZM45.959,61.375Zm0,.584ZM44.3,49.015Zm3.212-16.642ZM58.61,10.088Zm.292,3.8Zm2.433,15.766h0v-.1h0Zm.487-2.53h0v.1h0Zm-3.6-20.534Zm.487,4.087a.426.426,0,0,0,.292.389v.195a1.383,1.383,0,0,0-.195-.584Zm0,2.628ZM46.056,50.378Zm.876.1h0Zm0-11,.1-.1v.195h-.1ZM44.5,36.559h0Zm2.92,17.128Zm9.829-35.132v0Zm0,8.953Zm-.389-12.943ZM51.992,29.649h0v.1h0ZM51.7,34.709Zm.195,0Zm5.255,1.752v0Zm-.292-18.588ZM55.691,42.69Zm1.654-15.279ZM55.107,12.326h0c.292,0,.292-.1.195-.389v.1A1.4,1.4,0,0,1,55.107,12.326ZM51.9,24.394Zm-1.362,7.786v0h0v.1h0ZM49.462,44.733Zm-6.131-8.661-.1-.1h.195v.195Zm-2.141.487ZM45.959,49.7Zm5.547-12.262-.1-.1s.195-.1.195-.195c0,.1-.1.195,0,.292Zm1.362,15.279Zm3.017-8.175Zm3.309-21.994Zm.681,15.474Zm2.141-10.705v-.1h0Zm-3.406-14.7h0l-.584.292h0S58.513,12.813,58.61,12.618ZM57.734,16.9Zm-4.671.973h0s0-.1-.195-.195h.1Zm-5.645,9.537v0Zm-22.87,2.044v.1h0Zm.876,10.51a.3.3,0,0,0-.195.1v-.195h.195Zm-.389.876Zm.487,11.581ZM28.344,42.3l-.1.1Zm-.487.1Zm.1,1.362Zm-3.7-14.793h0v0Zm.1,1.849h0a.3.3,0,0,1,.195.1h-.195Zm8.661,2.433Zm1.752,8.856ZM36.421,38.7Zm-.973-3.5Zm.195,8.078-.1-.1h.195Zm0,0h0l.1.1h0v-.1Zm1.752-1.946h0Zm-1.071-6.91Zm0-.584Zm-1.362,3.893h0ZM32.723,34.9h0a.209.209,0,0,0-.195.195Zm-1.362.876Zm.389,8.759Zm2.336-.779Zm3.017-.584Zm-.292.779Zm2.628-2.53Zm.195-14.306v-.195h0v.195Zm-.973,9.148v.1h0Zm1.071-4.379Zm0-9.927v-.1l.195-.195c0,.1-.1.195-.1.292Zm-.389-.1ZM31.263,34.028ZM31.75,50.67ZM29.512,34.807ZM24.743,49.794h0V49.6h0v.195Zm2.92-1.168h0v0Zm14.7-8.661h0s-.1.195-.195.195c0-.1.1-.195.1-.292ZM44.3,50.378v0Zm1.654,13.527Zm1.071,0Zm.1-1.362ZM56.177,49.6h0Zm6.715-34.743ZM62.6,12.521v0ZM58.61,6.195Zm-.779,3.99v.195l-.195-.1h.195Zm-7.1,17.809Zm-7.1-10.51ZM41.579,33.736Zm-5.45-1.362s-.292-.195-.195-.389h0a.506.506,0,0,0,.195.389Zm-21.8.292Zm6.812,17.712ZM22.7,24.2Zm-.779,11.484ZM22.7,24.2Zm.292-1.849ZM15.6,39.575h.1v.1Zm0-.876ZM16.86,58.65l.1.1h-.1Zm7.007-33.672Zm2.141,33.089h0Zm.779-1.849Zm1.071-5.645Zm2.53-.195Zm8.856-2.53Zm2.433-8.175Zm.195,1.849Zm1.752,7.786Zm2.433,10.8h0Zm1.265,1.557Zm.389-.292Zm3.017-2.53Zm2.336-2.725h0v0Zm.973,3.017Zm6.326-14.5s.1.195,0,.292Zm0-36.884Zm-6.715,4.574ZM50.825,27.411ZM29.22,12.326ZM29.706,27.9Zm0,0ZM26.981,15.246h0s0-.195.195-.1h0s-.1,0-.195.195ZM9.951,10.477Zm0-2.92ZM3.722,54.076ZM5.085,53.2Zm1.168,4.185Zm2.92-5.645v.1h0Zm.779.876ZM11.6,44.441h0v0Zm.584-.973Zm2.92,9.635h0a.209.209,0,0,0,.195.195C15.206,53.3,15.011,53.3,15.108,53.1Zm.876,2.433h0a.1.1,0,0,0-.1-.1Zm.292.195Zm2.433,1.46Zm.681.779Zm.487-.876Zm6.715,3.017Zm1.362,1.46h0v.1h0Zm5.936-10.121Zm2.725.973Zm2.628,2.628Zm.389-7.007v-.1h0ZM41,45.123ZM42.358,49.5v0Zm1.557,5.353Zm1.265,0v.195s0-.1-.195-.195Zm.487,4.185a.191.191,0,0,1-.195.195c-.195,0-.1-.195-.1-.292h.389Zm0,3.8Zm0,1.557Zm1.168,2.044v.1h0Zm.973-5.158Zm3.114-3.212a5.24,5.24,0,0,0,.1-.779v.779Zm3.7,3.114a1.2,1.2,0,0,1,.195-.681C54.815,60.694,54.62,60.986,54.62,61.18Zm1.654-7.007Zm5.547-4.963Zm1.849-4.087Zm3.212,9.927a.1.1,0,0,1,.1-.1v.1ZM68.537,53.2Zm1.557,2.725Zm1.168-1.265h0v-.1h0Zm10.51-3.212ZM93.84,49.015Zm2.53,2.044Zm5.45,2.433Zm3.212-41.069v.1h0Zm-4.574-4.477ZM98.9,16.413Zm-1.752-7.98ZM80.994,5.514ZM69.023,9.406l-.195.1.195-.195Zm-3.893-2.53h0V6.487h0Zm-1.168,9.051h0v-.1h0v.1Zm-11.873-3.6Zm-3.6,18.685ZM48,12.91Zm-4.769,14.5ZM38.562,11.645v0ZM35.935,16.8h0v0Zm-7.494,6.812Zm-3.017-8.953ZM13.941,16.8Zm-.584.973ZM11.508,33.347v-.292s0,.195.1.195H11.41ZM9.269,12.131ZM4.6,35.975ZM3.43,51.448v-.389H2.944v.389H3.43Zm.389.292h0Zm3.406.779ZM8.1,49.307Zm2.628,12.652Zm3.7-7.3Zm1.265,4.379v.1h0Zm2.53,1.265v0ZM19,58.65v.1h0Zm.779-.779Zm1.46,2.92Zm1.168-1.752Zm1.071-12.262Zm2.628,16.252Zm-.1-1.654Zm1.46.1Zm.584-.584Zm17.031-2.141a.3.3,0,0,1-.195-.1A.3.3,0,0,1,45.083,58.747Zm1.849,8.759a1.387,1.387,0,0,0,.389-.195h0c-.195,0-.292,0-.389.195Zm3.6-5.547Zm1.362-7.1v.195h0Zm1.265,3.212Zm7.98-9.537Zm6.423,9.537ZM67.758,57Zm1.752,3.893Zm11-3.212Zm7.2-2.433Zm1.654-4.087ZM99.1,46.388Zm.779-7.1Zm5.158-24.524h0v0ZM106,19.722h0v0Zm-.584-1.168Zm-4.769-11ZM78.95,4.832ZM74.181,6.682Zm-3.8-2.433ZM65.423,5.611ZM60.557,6Zm-18,21.41ZM29.609,18.846Zm-1.168-5.353a.135.135,0,0,1,0-.195v.195Zm-4.477-2.238Zm-.973,6.52Zm-5.936,13.43Zm-2.238-21.8ZM6.447,57.19Zm2.044-7.98Zm.973,4.574Zm9.051,6.52h0v0Zm.292-.876Zm.195,0h0v0Zm2.53,1.557h0Zm.292,1.557h0Zm0-2.044Zm1.362-5.547Zm1.362,7.1h0v.195h0Zm1.362,1.557Zm.779-3.7Zm2.238-5.061Zm4.379,1.752Zm.389.779Zm1.946-.195ZM36.519,57l-.1-.1Zm6.326,4.282h0c0,.195.195,0,.292,0h-.292Zm4.769,6.52Zm8.272-8.564s.195-.195.292-.1A.358.358,0,0,0,55.885,59.234Zm5.061-2.53h.195c0,.1-.195.195-.1.292V56.8Zm.681-3.406Zm.779,5.742Zm1.168-12.262Zm3.7,14.111Zm5.936-.681Zm.584.389s-.1-.195-.195-.195C73.6,60.4,73.792,60.5,73.792,60.6Zm16.739-6.618ZM95.4,57.385Zm4.769-16.642Zm3.309,14.89Zm1.557-38.441h0v.1h0Zm.584,8.759h0v0Zm.779-5.742ZM106,17.289h0v0Zm-.584-8.175Zm-.487-4.282h0ZM102.7,7.46Zm-4.671,0ZM96.175,2.594v0ZM87.9,5.416a2.941,2.941,0,0,1-.876.292c.389,0,.681,0,.876-.292ZM80.6,3.178ZM79.047,4.832Zm-3.6,7.786ZM62.6,5.708Zm-6.52-.195a.3.3,0,0,1-.195-.1.3.3,0,0,1,.195.1Zm-7.688,3.7A1.358,1.358,0,0,0,48,8.725c.1.1.1.292.292.389v.1Zm-5.742.876v.389a1.234,1.234,0,0,1-.1.584,3.458,3.458,0,0,1,.195-.973ZM38.757,7.752ZM28.831,20.306ZM24.451,7.752ZM22.018,9.5Zm-3.6,19.658h0ZM10.826,6.876V6.682h0v.195ZM3.333,19.722ZM2.846,13.2Zm.681,49.633ZM5.085,57.19Zm6.034,6.131Zm2.433-7.4h0v0Zm3.7,6.812Zm.195.584Zm4.671-3.6h0Zm3.309,4.769h0v.195h0Zm0-1.071h0c.195.1.292,0,.487,0h-.487Zm.779.195Zm3.309,1.071Zm2.238-1.946h0ZM38.27,60.5ZM44.5,61.862h0v-.876A1.35,1.35,0,0,1,44.5,61.862Zm.876,6.812Zm1.849-1.168Zm8.175-2.92ZM59,51.546l.1-.1a.3.3,0,0,1-.1.195h0Zm4.574,1.946Zm1.557.389Zm6.034,8.759Zm9.148-3.6h.1a.3.3,0,0,0-.195.1h0Zm2.238-3.99Zm3.406.973Zm0-.779Zm3.6,5.839ZM93.742,56.8h0V57h0Zm2.53,2.238h0Zm1.849-10.413Zm.292,1.362Zm.779,5.45Zm.681,2.336h0V57.58h0Zm2.141-4.671h0Zm.876,2.628Zm.584-7.2h0s.1,0,.195-.195h0Zm.195-8.369Zm.584-15.863Zm.584,8.467Zm.779-12.068Zm-.389-3.017ZM103.864,4.832Zm-2.336,3.017ZM99.192,5.806Zm-13.527,0Zm-.389,0V5.611a.191.191,0,0,0,.195.195h-.195ZM61.822,5.222ZM55.5,3.178a7.166,7.166,0,0,0-.584.487h0a.34.34,0,0,1,.195-.1c.195,0,.292-.195.389-.389h0ZM51.311,4.54v0Zm0,1.752Zm-.584,9.927Zm-2.433-11ZM46.153,7.265Zm-18.2-.584h0V6.487a.1.1,0,0,0,.1.1h0Zm-5.158,0Zm0,0ZM20.753,6.1h0v0Zm-5.547.973ZM12.189,8.433ZM3.236,7.46h0v0ZM2.749,9.893ZM2.36,50.378Zm-.779,1.946Zm.1.779Zm7.591,6.91Zm1.849,4.477Zm1.752-8.953v.1h0v-.1Zm.973,4.769Zm.195,0Zm.1,1.752v-.1h0v.1Zm1.362.195Zm6.228-1.46Zm.487-.779h0v.1h0Zm.195-.195Zm.973-4.282h0v0Zm0,7.1h-.1v-.1Zm.389,3.017Zm.487,0Zm1.752-1.071ZM26.495,64Zm2.433-8.078Zm7.1,5.353Zm2.238-3.406Zm1.168,7.3Zm.389-2.141Zm1.265-5.645a.346.346,0,0,0,.195.292h0C41.287,57.579,41.093,57.482,41.093,57.385Zm1.752,2.336v-.1s.1,0,.195.195h-.195Zm1.168.292Zm.973,6.228Zm1.557,1.752Zm1.071,1.654Zm1.946-4.379Zm.584-2.044Zm3.017,2.238Zm6.812-7.688Zm-.1,2.044h0v0Zm3.212-5.645Zm3.6,7.688Zm2.628-.1ZM72.235,64Zm1.362.876Zm.779-2.628Zm6.812-1.362-.1.1v-.195h.195Zm5.45-5.645Zm2.336,6.52Zm2.238,0h0l.195.195h0s0-.1-.195-.195Zm1.168-2.141Zm7.2-8.564Zm-.195,4.185Zm-.1,0Zm6.618-25.011Zm.584-15.084Zm-5.255-7.494ZM60.362,1.913ZM55.5,2.691Zm-18.3,3.6Zm-33.575,0ZM2.944,19.43Zm-.389.779h0v0Zm.973,5.742ZM1.094,54.465Zm1.362,3.406h-.1v.1h0v-.1Zm5.061,2.044a.3.3,0,0,0,.195-.1H7.518Zm.1,2.141v.195h0v-.195Zm2.141-2.433Zm2.725-4.282ZM13.259,57h0v-.1h0Zm.1,5.936Zm4.769,3.017Zm.487-4.574Zm.487,0h0v0Zm3.8-2.044Zm1.362,7.007Zm7.494-1.849h0a.346.346,0,0,0,.195.292h0C31.945,64.684,31.945,64.587,31.75,64.489Zm1.265-2.92ZM36.227,64.2Zm-.292-3.017Zm4.477-1.46h0v.1h0Zm3.893,3.6Zm0,2.92Zm2.53,3.8Zm3.6-4.087h0a.389.389,0,0,1,.195-.389h0a.743.743,0,0,0-.195.487ZM59.1,57.58Zm11.581,6.131h0v.1h0Zm.584,1.46Zm2.238-.195ZM86.735,58.65Zm7.494,3.114Zm.487,1.265ZM106,29.454h0v-.389h0Zm.389-20.145Z" transform="translate(-0.008 -0.037)" fill="#111" opacity="0.2"/>
</svg>
