<svg xmlns="http://www.w3.org/2000/svg" width="101.16" height="78.459" viewBox="0 0 101.16 78.459">
  <g id="svgexport-17_3_" data-name="svgexport-17 (3)" transform="translate(0 20.252) rotate(-13)">
    <path id="Path_39" data-name="Path 39" d="M18.127,41a77.548,77.548,0,0,1,9.72-8.84,47.35,47.35,0,0,1,10.67-6.58c3.3-1.31,7.5-2,10.35.63,2.58,2.42,3.23,6.22,2.76,9.61-.11.73-.26,1.46-.44,2.19a54,54,0,0,0-5.59,3.55,53.24,53.24,0,0,0-10.5,9.89c-1.37,1.72-2.92,3.51-3.45,5.7s-.08,4.4,2,5.42c2.29,1.12,5.19-.26,7.23-1.4a21,21,0,0,0,5.1-4.11,39.79,39.79,0,0,0,7-11.35c.65-1.52,1.27-3.06,1.78-4.64a18,18,0,0,1,8.45-2.18c5.74.21,6.67,5.69,6.13,10.8a79.371,79.371,0,0,0-12.15,8.4c-3.46,2.83-8.66,6.55-8.27,11.61a5.88,5.88,0,0,0,3.94,5.36c2.42.76,5.06-.24,7.07-1.58a30.88,30.88,0,0,0,9.36-10.1,32.42,32.42,0,0,0,3.93-10.83c5.25-2.5,11.36-3.8,15.72.77,2.49,2.68,2.09,6.4.37,9.42-2,3.64-5.4,6.2-8.3,9.1a28.67,28.67,0,0,0-4,4.87c-1.49,2.33,2.22,4.48,3.7,2.16,2.64-4.13,6.87-6.84,9.95-10.6s5.49-8.83,3.83-13.73c-1.43-4.2-5.3-7.09-9.53-8.08a19.21,19.21,0,0,0-11.3,1.19c.07-3.86-.69-8-3.7-10.54-3.38-2.86-8-2.87-12.13-1.78-.65.17-1.3.38-1.94.61a18.1,18.1,0,0,0-.16-5.49c-.87-4.52-4-8.59-8.48-9.87-4.83-1.36-10,.57-14.14,2.94a75,75,0,0,0-12.58,9.19c-1.9,1.68-3.7,3.45-5.44,5.3C13.207,40,16.227,43,18.127,41Zm29.27,6.46a27,27,0,0,1-6.6,8.64,13.75,13.75,0,0,1-4.26,2.38c-.23.07-.61.21-.83.27a3.65,3.65,0,0,1,.38-1.31A21,21,0,0,1,39.367,53a51.6,51.6,0,0,1,4.32-4.43,48.741,48.741,0,0,1,5.14-4C48.367,45.564,47.887,46.524,47.4,47.464Zm20.63,8.32a27.69,27.69,0,0,1-9.31,13.34c-1.13.86-3,2.35-4.57,1.9-1.25-.37-1.11-2.14-.69-3.09.78-1.76,2.51-3.1,3.91-4.35a84.391,84.391,0,0,1,10.66-8.11h.06q-.023.156-.06.31Zm-60.3-4.64,20.16-6.59c2.61-.85,1.49-5-1.14-4.13l-16.86,5.5C10.977,40,12.1,34,13.287,28.1a2.19,2.19,0,0,0-1.5-2.64A2.16,2.16,0,0,0,9.157,27q-2.13,10.71-4.13,21.5c-.23,1.5,1,3.19,2.67,2.64Z" transform="translate(-4.999 -20.133)" fill="#fff"/>
  </g>
</svg>
