<svg xmlns="http://www.w3.org/2000/svg" width="159" height="42.797" viewBox="0 0 159 42.797">
  <path id="Path_44" data-name="Path 44" d="M152.334,31.764h-.6c-1.2,0-2.095.6-2.993.6a22.685,22.685,0,0,0-4.788.9h0a10.531,10.531,0,0,0-3.591.6h-1.8c.9-.3,2.394,0,2.694-.9h0a4.923,4.923,0,0,0,2.993-.3h.6a2.2,2.2,0,0,0,1.8-.6c.6,0,1.5,0,1.5-.9h.6c.9.3.9,0,1.2-.6h.9a2.269,2.269,0,0,0,1.2-.6h2.095c.9,0,1.8-.6,2.993-.9h.3s.6-.3.6-.6h.3c.3,0,.9,0,.6-.6,0-.3-.6,0-.9,0h-.3v-.6h-1.2c-.3,0-.3-.6-.3-.9h0s.3,0,0-.6h0v-.9h.3v-1.5c-.3-.6.3-1.2,0-1.8v-.6h0a.415.415,0,0,0,0-.6h-.6c.3-.6-.6-.6-.9-.6v-.9c.6-.6.6-1.5.9-2.394,0,0,0-.6-.3-.3-.3-.3.6-.3.3-.6h0V13.208h0s.9-.6.6-1.2h0V9.916h-.3a2.7,2.7,0,0,0-.3-1.5c0-.9-.9,0-1.2,0v-.3c-1.5,0-2.993-.3-4.19.3a5.093,5.093,0,0,0-2.095.3c-2.095,0-3.891.9-5.986.6h-1.5a.927.927,0,0,0-.3-.6c.6-.3,0-.9,0-1.2.6-.3,0-.6,0-1.2h0s0-.3-.6-.3a3.053,3.053,0,0,0-2.694-.6c-.9,0-1.8.6-2.993.6-.9,0-1.8.6-2.694,0h0c0,.6-.9.6-1.5.9h0s0-.6-.3-.6h-.9c-.6.3-1.8.6-2.394.9-.9.3-2.095.3-2.694.9h-.3c-1.5,0-2.394.6-3.891.9h-.3s-1.2.6-1.5.3a9.226,9.226,0,0,0-2.993.3h-1.2c-.6,0-.3,0,0-.3h.3c.6,0,1.8,0,1.5-.9h.6c.3.3.9,0,1.2,0s0-.3,0-.6h1.2v-.3h-1.5a14.848,14.848,0,0,0-3.891.9,2.7,2.7,0,0,0-1.5.3h-.3c-.3,0-.6.3-.9,0-.3,0,0-.3,0-.6h0a2.09,2.09,0,0,1,1.2-.6,1.8,1.8,0,0,0,1.2-.3h.6a2.525,2.525,0,0,0,2.095-.6,8.286,8.286,0,0,0-2.694.3h-.9a6.382,6.382,0,0,0-3.591.9c-.6,0-1.2.3-1.8,0h-1.8c-.6,0-1.2.6-1.8.9a3.8,3.8,0,0,0-1.8.3h-1.5s1.8-.6,2.394-.9h0c1.5-.3,2.993-.9,4.489-1.2l.9-.9h.6v-.3h-.6s-1.5.3-2.394.6a2.7,2.7,0,0,0-1.5.3h-.9l-1.2.6h-1.8c-1.2.6-2.993,0-4.19.9h-.6s0-.3-.3,0c-.6,0-.9.3-1.5.6h-1.5a2.243,2.243,0,0,0-1.5.3H87.989v-.6h0c.3-.6,0-.6-.6-.6h.6c.6,0,.3-.3.3-.6s-.6,0-.9,0h-1.5a5.843,5.843,0,0,0,2.095-.3c-.6,0-1.2-.3-1.8,0-.3,0-.9,0-.6-.3v-.9c0-.6-.6-.3-.9,0-.6-.3-.9,0-1.2,0h0l-.3.3c-.3,0-.9,0-.9-.3h-.9a23.859,23.859,0,0,1-4.489.9h-.6v-.6h0a2.235,2.235,0,0,1,.9-.9s.6-.3.9,0c.9.6,1.5,0,2.394,0,0,0,.6-.3.9,0h1.2l-.3-.3H79.908c-.6,0-1.5.3-2.394.3s-.3-.3-.3-.9c-.6.6-1.5,0-2.095.6h-1.8c-.3-.6-1.2-.6-1.8-.3h0s.6,0,.6-.3h-1.2c-.6-.3-1.2-.9-2.095-.6h0c-.3,0-.3,0-.3-.3h.3s.6,0,.3-.3H66.44s-.6,0-.6.3H63.448c0-.6,1.2-.3,1.8-.6.9,0,0-.3,0-.6H63.148c-1.2-.3-1.2-.3-1.8.3h0a2.336,2.336,0,0,0-1.5,0h-.3c-1.5,0-2.993.9-4.489,1.2a5.834,5.834,0,0,0-2.394.3c-.6,0-.9-.3-1.2,0h-.6s.3-.6-.3-.3h-.6c-1.2,0-1.8.6-2.694.3-.3-.6-.6-.6-1.5,0h0s-1.2,0-1.5.3h-8.38c-.9.3-2.095,0-2.993.6h0c-.6-.3-1.2,0-1.8,0h-1.2a3.225,3.225,0,0,1-2.394-.6h-1.5c0-.6-.9-.3-1.5-.6h-1.2a22.42,22.42,0,0,0-4.789,1.2h0a19.77,19.77,0,0,0-4.489,1.5c-.6,0-.3.6-.6.6h0s-1.2,0-1.5.6l.3.3h0a.293.293,0,0,0-.3.3h0l.3-.3c-.6,0-.9,0-.9.6a6.542,6.542,0,0,1-1.5.9c-1.2.9-2.694,1.8-3.891,2.694h0v.3a.644.644,0,0,0-.6.6h-.6c-.6.9-1.5,1.5-1.5,2.394s0,.9,1.2.6h-1.2s-.6.6-.6.9c0,1.2-.9,2.394-1.8,3.591-.9-1.8-.9-.3-.9.9a.573.573,0,0,0,.9.3c.9-.6,2.095-.3,2.694-1.2.9,0,1.5-.6,2.394-.6.3,0,.6,0,.9-.6.6-.6,1.8-.6,2.694-.6v1.2h0c0,.3-.9.6-1.5.9h0s-1.2.3-1.2.6c0,.6-.3,1.5,0,2.095s0,1.2-.6,1.8c-.3,0-.3.6,0,.9h0c-.3.3-.3.6,0,1.2a2.269,2.269,0,0,0-.6,1.2v.9c-.3.3,0,.9,0,1.2v1.5c-.3.3.3.6.6.9a1.851,1.851,0,0,0,2.095.6,5.834,5.834,0,0,0,2.394-.3,1.8,1.8,0,0,0,1.2-.3c-.6-.3-1.2,0-1.5,0h1.8a25.82,25.82,0,0,0,8.38-1.2h.9a.415.415,0,0,1,.6,0h0c-.6.6,0,1.2-.3,1.8h0v1.2h0a6.441,6.441,0,0,0,0,2.394s-.3.6,0,.9l1.2,1.2h4.19a44.651,44.651,0,0,0,6.285-.6,3.8,3.8,0,0,0,1.8-.3h.3c.6,0,1.5,0,1.8-.3h1.8c.3-.3,1.2,0,1.5-.6h0l.3-.3a8.137,8.137,0,0,0,2.694,0h.6v.6c0,1.5,1.8,2.095,3.891,2.095h.3c.3,0,.6.3,1.2.3a12.127,12.127,0,0,1,3.292,0,10.032,10.032,0,0,0,2.993,0h1.2c.9,0,2.095,0,2.694-.9h0a1.478,1.478,0,0,1,.9.3,4.9,4.9,0,0,0,3.591-.6h.6c.3-.3.9-.6,1.2-1.2h.6v.6h.9c.3,0,0,.6,0,.9v1.8c0,.3,0,.6.6.9h1.2a9.226,9.226,0,0,0,2.993-.3h4.19a9.216,9.216,0,0,0,3.891-.9H82.9a.293.293,0,0,0,.3-.3,8.215,8.215,0,0,0,3.891-.6,10.634,10.634,0,0,0,2.993-.6,8.136,8.136,0,0,1,2.694,0c0,.6-.6.6-1.2.6s-1.5.6-1.2.9c0,.6,0,.6-.6.9-.3.3,0,.9,0,1.2h2.993a10.759,10.759,0,0,0,3.292-.6h.9a12.009,12.009,0,0,0,4.489-.9h2.095c2.095-.3,3.891-.9,6.285-1.2a5.093,5.093,0,0,0,2.095-.3,5.843,5.843,0,0,0,2.095-.3,37.422,37.422,0,0,0,5.686-.9,7.431,7.431,0,0,0,2.694-.3h0s1.2,0,1.5-.6a9.977,9.977,0,0,0,2.993,0,3.8,3.8,0,0,0,1.8-.3h2.394l-.3.3h-.6a15.784,15.784,0,0,0-3.591.9c-.6,0-1.5,0-1.5.9h0a2.2,2.2,0,0,0-1.8.6c-.3,0,0,.6,0,.6a8.286,8.286,0,0,0,2.694-.3h1.8a4.448,4.448,0,0,0,2.694-.6,3.6,3.6,0,0,0,2.394-.6h.3c1.2,0,2.095-.6,3.292-.6h-.3a19.358,19.358,0,0,0-3.891,1.2c-.6,0-1.2,0-1.5.6s-1.2.6-1.8.9c-.3,0-.9,0-.9.3s.6.6,1.2.3a4.438,4.438,0,0,0,2.095-.3,5.4,5.4,0,0,0,3.591-.9h2.394a4.957,4.957,0,0,0,3.591,0,12.963,12.963,0,0,0-1.5-.3h0c0-.3.6-.3.9-.3h0a7.351,7.351,0,0,0,4.489-1.5h1.2a19.358,19.358,0,0,0,3.891-1.2h.6c.6-1.2.6-1.5-1.2-1.8a6.337,6.337,0,0,0,2.095-.9h1.8a5.977,5.977,0,0,0,2.394-.9,1.1,1.1,0,0,0,.9-.3h-.9a18.792,18.792,0,0,0-5.686.9Zm-20.351,8.081Zm-86.792-1.2Zm-22.446-1.2ZM62.251,1.536Zm36.812,8.978ZM154.728,16.2h0v0ZM51.177,1.836h0v.6h0s.3,0,.3-.6ZM96.069,38.049Zm15.563-27.833ZM80.207,34.457Zm-8.679,2.694Zm-8.38-1.8h-.6a1.478,1.478,0,0,0,.9-.3h-.3ZM59.856,3.033Zm8.978,2.993Zm77.813,7.482ZM79.01,28.172ZM55.966,5.427Zm21.848,5.686ZM53.571,32.662Zm20.95-2.394Zm-3.292-6.285ZM60.156,32.063ZM12.271,10.216Zm12.869,0ZM74.521,27.275ZM71.828,29.37Zm1.8-3.292v.3h-.3Zm.6-.9Zm-22.745,0ZM33.52,19.493Zm39.505,0ZM53.871,21.588Zm-18.855-8.38ZM63.747,15.6Zm-2.394.3Zm-5.088,4.19ZM58.958,18Zm-2.993,0h0ZM65.243,15Zm-3.891,1.2Zm3.292,2.993Zm1.8-4.489Zm-8.38,1.2Zm-10.176-4.19Zm.3,0Zm-1.5.9ZM42.8,19.793Zm-4.789-6.584Zm-2.694.3Zm-1.2,10.176ZM49.98,21.588h0Zm16.76-.9Zm-3.891-6.285h0s0-.3-.6-.3C62.251,14.106,62.849,14.106,62.849,14.406ZM52.075,10.515Zm.6,13.468Zm5.686,5.686ZM69.733,20.69ZM43.4,12.311ZM29.928,18.895Zm1.5,2.394Zm0,11.073Zm-2.095-.6Zm28.432-3.292ZM69.733,20.69l.3.3h-.3Zm1.2,3.292ZM67.338,12.909ZM38.009,8.121ZM31.425,12.61h0s-.6-.3-.6-.6c0,0,.6,0,.6.3Zm-3.292-1.5ZM18.256,24.282ZM17.059,15Zm2.095,9.278Zm2.993-4.489Zm1.2-5.686ZM15.263,17.1ZM29.33,33.56Zm3.591.6Zm2.394-7.781Zm11.971-.9h-.3a.927.927,0,0,1,.3-.6v.6Zm14.665,1.8Zm9.577,2.694ZM85.3,19.493Zm15.263-5.088Zm44.593.9ZM85,19.793Zm58.36.9h-1.2a3.015,3.015,0,0,0,.9.3Zm.3.3Zm-16.161,1.2ZM124.5,16.5h0v.3h0Zm10.475,3.292Zm-3.891,1.8Zm2.095-.3Zm.9-.6Zm-.3,0Zm-17.957,1.2Zm-21.548.3Zm11.073,1.5Zm-8.38.3Zm7.183-2.694Zm15.862-1.8Zm-.3.3Zm-21.548-.9Zm3.292,8.679Zm1.5-1.5Zm6.584,0Zm5.387,2.095ZM126.3,20.99Zm-35.016,1.8Zm17.658,3.591Zm13.767-4.489Zm6.285-7.482ZM116.121,18.6ZM100.259,29.669Zm42.2-7.183Zm1.8-7.183h0Zm-.9,0Zm-1.8-1.2Zm-1.2,1.8ZM125.7,13.807ZM118.815,16.8ZM90.383,20.391ZM88.587,18Zm16.46,9.876ZM125.4,24.581Zm13.168,1.2Zm.9-10.475ZM90.383,18.3ZM88.288,18h0Zm-1.2,0Zm-.9,2.694ZM82.6,18.6h.6s-.3.3-.3,0Zm-20.95-7.183ZM33.22,9.018Zm-4.788,0h0ZM24.84,12.011ZM18.256,8.121s0-.3-.6-.6h0S17.957,7.522,18.256,8.121ZM16.46,15Zm5.986,7.482ZM49.082,29.37Zm0,0Zm2.993,4.19Zm25.738-6.584Zm.6-.9v-.3h-.3Zm16.46,3.891Zm0,.9ZM126.6,27.574Zm-3.891-15.263Zm-7.482-.3ZM85.3,18ZM61.053,11.113Zm-45.79,2.694h0Zm0,6.285Zm-.6,1.2Zm.6,1.2Zm7.482,2.993Zm11.971,9.577Zm3.292-3.292Zm23.344-.9Zm5.088-5.088Zm4.19,3.292Zm8.081-1.2ZM82,22.486ZM99.96,32.362Zm8.978-2.095Zm35.614-5.686ZM134.377,12.311ZM104.15,9.318ZM13.767,15.6Zm0,8.978Zm2.095-2.095Zm4.19,3.891Zm5.986-2.993Zm2.095,11.373Zm13.168-.6Zm13.468-1.5Zm16.161,1.2Zm.6.9Zm20.95,0Zm34.118-4.19Zm3.591-24.242Zm-8.679,5.686Zm-12.869-.9Zm0,0ZM84.1,15.6ZM73.324,10.515ZM47.885,4.529h0Zm-24.242-.9ZM10.774,12.311ZM21.548,26.077v.3h-.3ZM31.724,37.749Zm16.76-3.292Zm11.073,1.5Zm2.095-1.5Zm6.883-8.38h0Zm.6,6.584Zm7.183.9Zm22.446,2.095Zm17.358-2.694h0Zm29.33-3.591Zm-8.978-18.256h0ZM120.61,7.821h0Zm-17.059,1.5ZM90.084,12.011ZM70.93,6.325ZM55.966,3.631Zm-11.073-.6ZM21.848,28.472Zm3.591.6Zm.6,8.081Zm7.781.6Zm10.774-3.292Zm2.694,1.8s.6-.9.3-1.5h0s-.6.9-.3,1.5Zm27.833-.6Zm2.394,0Zm14.366,0ZM154.13,15.6Zm-8.978-7.781-.6.3h.3Zm-7.781-1.2Zm-11.971-.9ZM116.42,8.121Zm-14.665,1.5ZM82.9,9.318h0Zm-.3-1.2Zm.6-1.2Zm-.3.9Zm0,0Zm-2.993-1.5Zm-1.5,0Zm-5.088-.6ZM66.141,1.836Zm-5.986,0Zm-6.883,0ZM34.118,4.829Zm-9.278-1.2Zm-2.394-.6Zm-4.489,1.2Zm-6.584,9.278Zm-.6,1.5h0Zm1.8,7.482Zm-2.095,4.788Zm13.767,5.686Zm2.694,5.986Zm26.636.6Zm8.679-1.5h0Zm30.826-.6Zm11.073.9Zm5.986-2.095Zm12.869-.3Zm26.337-4.788Zm7.183-4.489Zm-1.2-9.876Zm-4.489-9.278Zm0,0Zm-40.4,2.993Zm-8.38-.9ZM69.134,1.536Zm-21.548.6v-.3h0Zm-26.337-.3h0ZM6.584,7.821Zm1.8,14.366Zm1.5,4.489ZM6.584,29.37Zm4.789,2.394Zm13.168,5.088Zm0,.6Zm17.059-.6Zm21.848.9Zm4.788-1.5Zm3.891,4.489Zm.3,0v0ZM87.39,36.852Zm11.373,2.694h0Zm35.614-4.19Zm8.978-1.5Zm-.3-.6Zm12.271-22.745Zm-1.5-4.789h0ZM101.456,8.42Zm-.9.6Zm-5.387-.9h0ZM84.4,6.923Zm-2.694-.9ZM72.426,3.631ZM22.147.04ZM10.176,4.529ZM3.591,9.916Zm0,2.394ZM8.679,26.077ZM33.52,39.545Zm29.03-.9Zm17.957,2.095Zm11.073,0Zm5.986-.6Zm42.5-3.591Zm0,2.394Zm10.475-4.789Z" transform="translate(0 -0.04)" fill="#ffe8af"/>
</svg>
