<svg xmlns="http://www.w3.org/2000/svg" xmlns:xlink="http://www.w3.org/1999/xlink" width="258.205" height="74.84" viewBox="0 0 258.205 74.84">
  <defs>
    <linearGradient id="linear-gradient" x1="0.5" x2="0.5" y2="1" gradientUnits="objectBoundingBox">
      <stop offset="0" stop-color="#a3a5a8"/>
      <stop offset="1" stop-color="#f7f8f8"/>
    </linearGradient>
    <linearGradient id="linear-gradient-2" x1="0.177" y1="0.039" x2="1" y2="1" gradientUnits="objectBoundingBox">
      <stop offset="0" stop-color="#ccab5e"/>
      <stop offset="1" stop-color="#d6b566"/>
    </linearGradient>
    <linearGradient id="linear-gradient-3" y1="1.073" x2="0" y2="0.043" gradientUnits="objectBoundingBox">
      <stop offset="0" stop-color="#dab969"/>
      <stop offset="1" stop-color="#c2a86b"/>
    </linearGradient>
    <linearGradient id="linear-gradient-14" y1="0.783" x2="0" gradientUnits="objectBoundingBox">
      <stop offset="0" stop-color="#dab969"/>
      <stop offset="1" stop-color="#a58742"/>
    </linearGradient>
  </defs>
  <g id="Layer_1" data-name="Layer 1" transform="translate(0.001 -0.05)">
    <g id="Group_9" data-name="Group 9" transform="translate(-0.001 0.05)">
      <g id="Group_4" data-name="Group 4">
        <path id="Path_4" data-name="Path 4" d="M0,0V41.083A34.007,34.007,0,0,0,5.721,60.2C15.055,73.788,31.681,74.84,36.56,74.84c.62,0,1.085,0,1.3-.027H40.55A40.369,40.369,0,0,1,13.04,58.4,30.3,30.3,0,0,1,7.325,41.177V6.854H29.342a30.981,30.981,0,0,1,15.076,3.916A24.37,24.37,0,0,1,57.351,30.825V47.977l7.13,7.2V30.846a31.951,31.951,0,0,0-1.82-10.021,30.036,30.036,0,0,0-14-16.747A33.155,33.155,0,0,0,32.766,0Z" transform="translate(0.001)" fill="url(#linear-gradient)"/>
        <path id="Path_5" data-name="Path 5" d="M98.638,74.84V33.757a34.007,34.007,0,0,0-5.722-19.113C83.576,1.058,66.957,0,62.071,0c-.62,0-1.085,0-1.3.027H58.081a40.345,40.345,0,0,1,27.51,16.417,30.379,30.379,0,0,1,5.715,17.212v34.33H69.289A30.981,30.981,0,0,1,54.213,64.07,24.37,24.37,0,0,1,41.28,44.014V26.863l-7.13-7.2V43.994a31.951,31.951,0,0,0,1.82,10.021A30.05,30.05,0,0,0,49.96,70.762a33.285,33.285,0,0,0,15.918,4.071h32.76Z" transform="translate(-11.135)" fill="url(#linear-gradient-2)"/>
      </g>
      <g id="Group_8" data-name="Group 8" transform="translate(101.042 10.109)">
        <g id="Group_6" data-name="Group 6" transform="translate(0 0)">
          <path id="Path_8" data-name="Path 8" d="M165.815,25.7q-.586-2.133-.991-3.2a7.272,7.272,0,0,0-1.139-2.022q-1.324-1.769-4.522-1.766t-4.529,1.766A7.272,7.272,0,0,0,153.5,22.5q-.4,1.072-.991,3.2l-4.118,15.231q-.334,1.254-.02,1.658t1.6.4h.7a3.1,3.1,0,0,0,1.82-.4,2.994,2.994,0,0,0,.863-1.658l.957-3.754h9.711l.957,3.754a3.037,3.037,0,0,0,.863,1.658,3.1,3.1,0,0,0,1.82.4h.7c.856,0,1.4-.135,1.6-.4s.2-.822-.02-1.658L165.821,25.7Zm-10.378,7.063,1.806-6.84a14.292,14.292,0,0,1,.775-2.278,1.522,1.522,0,0,1,2.278,0,15.051,15.051,0,0,1,.775,2.278l1.766,6.84h-7.393Z" transform="translate(-148.215 -16.203)" fill="url(#linear-gradient-3)"/>
          <path id="Path_9" data-name="Path 9" d="M192.7,26.79h-.4a8.414,8.414,0,0,0-5.7,1.712,6.275,6.275,0,0,0-1.948,4.987V43.571a2.42,2.42,0,0,0,.4,1.658,2.42,2.42,0,0,0,1.658.4h.7a2.42,2.42,0,0,0,1.658-.4,2.42,2.42,0,0,0,.4-1.658V33.86a2.626,2.626,0,0,1,.607-1.988,3.342,3.342,0,0,1,2.224-.553h.4a2.184,2.184,0,0,0,1.51-.256,2.128,2.128,0,0,0,.371-1.51v-.4a3.088,3.088,0,0,0-.4-1.84,1.777,1.777,0,0,0-1.469-.512Z" transform="translate(-160.095 -18.838)" fill="url(#linear-gradient-3)"/>
          <path id="Path_10" data-name="Path 10" d="M214.283,39.183a13.175,13.175,0,0,1-2.574.222q-2.315,0-2.318-2.467V29.654h4.192a2.42,2.42,0,0,0,1.658-.4,2.42,2.42,0,0,0,.4-1.658v-.4a2.42,2.42,0,0,0-.4-1.658,2.42,2.42,0,0,0-1.658-.4h-4.192V22.254a2.245,2.245,0,0,0-.371-1.543,2.282,2.282,0,0,0-1.543-.371h-.222a2.563,2.563,0,0,0-1.617.371,2.315,2.315,0,0,0-.586,1.51l-.445,2.9-1.51.33a2.541,2.541,0,0,0-1.435.66,2.475,2.475,0,0,0-.371,1.543v.148a2.1,2.1,0,0,0,.371,1.469,2.133,2.133,0,0,0,1.469.371H204.6v7.245q0,7.026,7.1,7.029a11.523,11.523,0,0,0,2.574-.222,2.752,2.752,0,0,0,1.6-.809,3.006,3.006,0,0,0,.425-1.806v-.4q0-1.173-.384-1.456a2.465,2.465,0,0,0-1.638-.054Z" transform="translate(-165.521 -16.734)" fill="url(#linear-gradient-3)"/>
          <path id="Path_11" data-name="Path 11" d="M258.2,19.25h-.849a2.97,2.97,0,0,0-1.82.425,2.821,2.821,0,0,0-.789,1.671l-3.424,14.975a8.5,8.5,0,0,1-.775,2.318c-.168.317-.553.478-1.139.478a1.317,1.317,0,0,1-1.179-.478,12.545,12.545,0,0,1-.735-2.318l-3.424-14.975a2.839,2.839,0,0,0-.788-1.671,2.983,2.983,0,0,0-1.82-.425h-.849q-1.284,0-1.617.4c-.222.27-.236.822-.034,1.658l3.646,15.231a13.382,13.382,0,0,0,2.244,5.479q1.324,1.506,4.562,1.51t4.563-1.51a13.467,13.467,0,0,0,2.244-5.479l3.639-15.231c.168-.836.155-1.388-.054-1.658s-.741-.4-1.6-.4Z" transform="translate(-177.758 -16.379)" fill="url(#linear-gradient-3)"/>
          <path id="Path_12" data-name="Path 12" d="M276.9,27.44h-.66a2.42,2.42,0,0,0-1.658.4,2.42,2.42,0,0,0-.4,1.658V43.776a2.42,2.42,0,0,0,.4,1.658,2.42,2.42,0,0,0,1.658.4h.66a2.42,2.42,0,0,0,1.658-.4,2.42,2.42,0,0,0,.4-1.658V29.5a2.42,2.42,0,0,0-.4-1.658A2.42,2.42,0,0,0,276.9,27.44Z" transform="translate(-189.288 -19.05)" fill="url(#linear-gradient-3)"/>
          <path id="Path_13" data-name="Path 13" d="M276.341,14.99a2.859,2.859,0,0,0-2.022,4.893,2.859,2.859,0,1,0,4.044-4.044A2.761,2.761,0,0,0,276.341,14.99Z" transform="translate(-189.057 -14.99)" fill="url(#linear-gradient-3)"/>
          <path id="Path_14" data-name="Path 14" d="M296.7,34.985l-3.828-1.51a5.1,5.1,0,0,1-1.213-.607.824.824,0,0,1,.29-1.422,6.9,6.9,0,0,1,2.136-.222,16.759,16.759,0,0,1,3.936.438c.809.2,1.355.175,1.638-.054s.425-.768.425-1.6v-.371a2.677,2.677,0,0,0-.384-1.671,3.124,3.124,0,0,0-1.638-.755,16.009,16.009,0,0,0-3.9-.438q-3.942,0-5.722,1.307a4.735,4.735,0,0,0-1.786,4.1,5.141,5.141,0,0,0,.883,3.181,7.109,7.109,0,0,0,2.945,2.042L293.9,38.84a10.8,10.8,0,0,1,1.874.9.935.935,0,0,1,.445.788.837.837,0,0,1-.586.849,7.4,7.4,0,0,1-2.244.222,17.939,17.939,0,0,1-5-.586c-.789-.222-1.321-.209-1.6.034a2.313,2.313,0,0,0-.425,1.692v.4a2.677,2.677,0,0,0,.384,1.671,3.073,3.073,0,0,0,1.638.755,18.648,18.648,0,0,0,4.637.478c2.77,0,4.785-.445,6.032-1.328a4.808,4.808,0,0,0,1.874-4.232,5.343,5.343,0,0,0-.991-3.37,7.427,7.427,0,0,0-3.235-2.15Z" transform="translate(-193.26 -18.831)" fill="url(#linear-gradient-3)"/>
          <path id="Path_15" data-name="Path 15" d="M315.993,27.44h-.66a2.42,2.42,0,0,0-1.658.4,2.42,2.42,0,0,0-.4,1.658V43.776a2.42,2.42,0,0,0,.4,1.658,2.42,2.42,0,0,0,1.658.4h.66a2.42,2.42,0,0,0,1.658-.4,2.42,2.42,0,0,0,.4-1.658V29.5a2.42,2.42,0,0,0-.4-1.658A2.42,2.42,0,0,0,315.993,27.44Z" transform="translate(-202.035 -19.05)" fill="url(#linear-gradient-3)"/>
          <path id="Path_16" data-name="Path 16" d="M315.434,14.99a2.888,2.888,0,0,0-2.864,2.871,2.855,2.855,0,1,0,2.864-2.871Z" transform="translate(-201.806 -14.99)" fill="url(#linear-gradient-3)"/>
          <path id="Path_17" data-name="Path 17" d="M334.545,26.79q-4.306,0-6.571,2.116a7.879,7.879,0,0,0-2.264,6.052V37.9q0,4.124,2.17,6.146t6.658,2.022c2.992,0,5.048-.7,6.53-2.1a7.945,7.945,0,0,0,2.224-6.072V34.958q0-4.124-2.136-6.146t-6.625-2.022ZM338.481,37.9a3.819,3.819,0,0,1-.849,2.831,4.509,4.509,0,0,1-3.093.809,4.566,4.566,0,0,1-3.127-.829,3.75,3.75,0,0,1-.883-2.817V34.951a3.75,3.75,0,0,1,.883-2.817,4.566,4.566,0,0,1,3.127-.829,4.509,4.509,0,0,1,3.093.809,3.819,3.819,0,0,1,.849,2.83V37.89Z" transform="translate(-206.091 -18.838)" fill="url(#linear-gradient-3)"/>
          <path id="Path_18" data-name="Path 18" d="M371.3,28.61q-2.022-1.82-6.288-1.82c-2.844,0-4.866.633-6.274,1.894a7.059,7.059,0,0,0-2.116,5.54v9.347a2.42,2.42,0,0,0,.4,1.658,2.42,2.42,0,0,0,1.658.4h.7a2.42,2.42,0,0,0,1.658-.4,2.42,2.42,0,0,0,.4-1.658V34.223a2.809,2.809,0,0,1,.775-2.264,4.478,4.478,0,0,1,2.8-.647,4.395,4.395,0,0,1,2.756.627,2.885,2.885,0,0,1,.735,2.278v9.347a2.42,2.42,0,0,0,.4,1.658,2.42,2.42,0,0,0,1.658.4h.7a2.42,2.42,0,0,0,1.658-.4,2.42,2.42,0,0,0,.4-1.658V34.217c0-2.527-.674-4.394-2.022-5.614Z" transform="translate(-216.17 -18.838)" fill="url(#linear-gradient-3)"/>
        </g>
        <g id="Ambition_to_Reality" data-name="Ambition to Reality" transform="translate(0.674 37.464)">
          <g id="Group_7" data-name="Group 7" transform="translate(0)">
            <path id="Path_19" data-name="Path 19" d="M162.092,74.5l2.52,9.01a.656.656,0,0,1,0,.492c-.061.088-.222.135-.472.135h-.189a.661.661,0,0,1-.809-.62l-.883-3.161H156.64l-.863,3.161a.879.879,0,0,1-.256.5.943.943,0,0,1-.553.121h-.209c-.249,0-.4-.047-.472-.135a.653.653,0,0,1,0-.492l2.52-9.01a5.894,5.894,0,0,1,.957-2.184,2.172,2.172,0,0,1,1.692-.586,2.1,2.1,0,0,1,1.671.586,5.479,5.479,0,0,1,.957,2.184Zm-3.8-.168-1.3,4.684H161.9l-1.3-4.684a2.593,2.593,0,0,0-.445-1.024.917.917,0,0,0-.708-.256.949.949,0,0,0-.721.256,2.7,2.7,0,0,0-.445,1.024Z" transform="translate(-154.243 -70.955)" fill="url(#linear-gradient-14)"/>
            <path id="Path_20" data-name="Path 20" d="M173.375,79.608v5.338a.756.756,0,0,1-.115.492.731.731,0,0,1-.492.115h-.209a.737.737,0,0,1-.478-.115.688.688,0,0,1-.121-.492V79.608q0-3.518,3.592-3.518a2.776,2.776,0,0,1,2.878,1.564,2.867,2.867,0,0,1,2.9-1.564q3.568,0,3.572,3.518v5.338a.712.712,0,0,1-.121.492.737.737,0,0,1-.478.115h-.209a.756.756,0,0,1-.492-.115.731.731,0,0,1-.115-.492V79.608a2.337,2.337,0,0,0-.492-1.671,2.263,2.263,0,0,0-1.671-.505,2.4,2.4,0,0,0-1.712.5,2.373,2.373,0,0,0-.492,1.685v5.338a.756.756,0,0,1-.115.492.731.731,0,0,1-.492.115h-.189a.756.756,0,0,1-.492-.115.731.731,0,0,1-.115-.492V79.615a2.337,2.337,0,0,0-.5-1.671,3.061,3.061,0,0,0-3.37,0,2.337,2.337,0,0,0-.5,1.671Z" transform="translate(-160.02 -72.377)" fill="url(#linear-gradient-14)"/>
            <path id="Path_21" data-name="Path 21" d="M194.63,80.008V71.187a.712.712,0,0,1,.121-.492.737.737,0,0,1,.478-.115h.209a.756.756,0,0,1,.492.115.731.731,0,0,1,.115.492v4.475a3.016,3.016,0,0,1,2.932-1.375q3.892,0,3.9,3.969V80a3.913,3.913,0,0,1-1.018,2.952,4.31,4.31,0,0,1-3.1.977q-4.114,0-4.118-3.929Zm6.807-.02V78.243a2.8,2.8,0,0,0-.6-2.022,3.969,3.969,0,0,0-4.185.007,2.76,2.76,0,0,0-.613,2.015v1.745A2.741,2.741,0,0,0,196.652,82a3.962,3.962,0,0,0,4.192,0A2.823,2.823,0,0,0,201.437,79.988Z" transform="translate(-167.412 -70.58)" fill="url(#linear-gradient-14)"/>
            <path id="Path_22" data-name="Path 22" d="M210.837,70.7a.855.855,0,0,1,.64.27.9.9,0,0,1,.263.647.9.9,0,0,1-.9.9.926.926,0,0,1-.667-.263.856.856,0,0,1-.27-.64.881.881,0,0,1,.27-.647A.9.9,0,0,1,210.837,70.7Zm-.714,12.488V75.121a.737.737,0,0,1,.115-.478.688.688,0,0,1,.492-.121h.209a.482.482,0,0,1,.6.6v8.067a.712.712,0,0,1-.121.492.737.737,0,0,1-.478.115h-.209a.756.756,0,0,1-.492-.115A.731.731,0,0,1,210.122,83.188Z" transform="translate(-172.391 -70.619)" fill="url(#linear-gradient-14)"/>
            <path id="Path_23" data-name="Path 23" d="M214.69,76.012v-.094a.659.659,0,0,1,.1-.431.634.634,0,0,1,.4-.148l1.072-.148.209-1.934a.57.57,0,0,1,.135-.4.685.685,0,0,1,.431-.1h.135a.405.405,0,0,1,.505.505V75.19h3.046a.7.7,0,0,1,.472.115.69.69,0,0,1,.115.472v.168a.7.7,0,0,1-.115.472.69.69,0,0,1-.472.115h-3.046v4.778a2.264,2.264,0,0,0,.425,1.516,1.638,1.638,0,0,0,1.307.478,5.846,5.846,0,0,0,1.671-.189.544.544,0,0,1,.445.027.611.611,0,0,1,.121.458v.168a.671.671,0,0,1-.121.431.878.878,0,0,1-.458.243,6.217,6.217,0,0,1-1.638.189c-2.1,0-3.161-1.112-3.161-3.329V76.524H215.2a.614.614,0,0,1-.411-.094.627.627,0,0,1-.094-.411Z" transform="translate(-173.953 -71.288)" fill="url(#linear-gradient-14)"/>
            <path id="Path_24" data-name="Path 24" d="M228.137,70.7a.856.856,0,0,1,.64.27.9.9,0,0,1,.263.647.9.9,0,0,1-.9.9.926.926,0,0,1-.667-.263.856.856,0,0,1-.27-.64.881.881,0,0,1,.27-.647A.9.9,0,0,1,228.137,70.7Zm-.714,12.488V75.121a.737.737,0,0,1,.115-.478.688.688,0,0,1,.492-.121h.209a.482.482,0,0,1,.6.6v8.067a.712.712,0,0,1-.121.492.737.737,0,0,1-.479.115h-.209a.756.756,0,0,1-.492-.115A.731.731,0,0,1,227.422,83.188Z" transform="translate(-178.032 -70.619)" fill="url(#linear-gradient-14)"/>
            <path id="Path_25" data-name="Path 25" d="M237.108,85.734a4.342,4.342,0,0,1-3.141-.977,3.99,3.99,0,0,1-1-2.972V80.039q0-3.953,4.138-3.949a4.281,4.281,0,0,1,3.114.977,4.015,4.015,0,0,1,.991,2.972v1.745q0,3.953-4.1,3.949Zm2.689-3.949V80.039a2.8,2.8,0,0,0-.6-2.015,2.9,2.9,0,0,0-2.089-.6,3.008,3.008,0,0,0-2.116.6,2.76,2.76,0,0,0-.613,2.015v1.745a2.741,2.741,0,0,0,.613,2.015,2.953,2.953,0,0,0,2.116.6,2.909,2.909,0,0,0,2.089-.6A2.771,2.771,0,0,0,239.8,81.785Z" transform="translate(-179.913 -72.377)" fill="url(#linear-gradient-14)"/>
            <path id="Path_26" data-name="Path 26" d="M249.605,79.608v5.338a.756.756,0,0,1-.115.492.731.731,0,0,1-.492.115h-.209a.737.737,0,0,1-.478-.115.688.688,0,0,1-.121-.492V79.608q0-3.518,3.929-3.518a4.261,4.261,0,0,1,2.965.876,3.421,3.421,0,0,1,.95,2.642v5.338a.756.756,0,0,1-.115.492.731.731,0,0,1-.492.115h-.222a.756.756,0,0,1-.492-.115.731.731,0,0,1-.115-.492V79.608a2.184,2.184,0,0,0-.553-1.685,2.9,2.9,0,0,0-1.927-.5,2.95,2.95,0,0,0-1.948.505A2.125,2.125,0,0,0,249.6,79.6Z" transform="translate(-184.876 -72.377)" fill="url(#linear-gradient-14)"/>
            <path id="Path_27" data-name="Path 27" d="M269.35,76.012v-.094a.659.659,0,0,1,.1-.431.634.634,0,0,1,.4-.148l1.072-.148.209-1.934a.57.57,0,0,1,.135-.4.672.672,0,0,1,.431-.1h.135a.405.405,0,0,1,.505.505V75.19h3.046a.7.7,0,0,1,.472.115.69.69,0,0,1,.115.472v.168a.7.7,0,0,1-.115.472.69.69,0,0,1-.472.115h-3.046v4.778a2.264,2.264,0,0,0,.425,1.516,1.638,1.638,0,0,0,1.307.478,5.846,5.846,0,0,0,1.671-.189.545.545,0,0,1,.445.027.612.612,0,0,1,.121.458v.168a.671.671,0,0,1-.121.431.879.879,0,0,1-.458.243,6.216,6.216,0,0,1-1.638.189c-2.1,0-3.161-1.112-3.161-3.329V76.524h-1.072a.614.614,0,0,1-.411-.094.627.627,0,0,1-.094-.411Z" transform="translate(-191.776 -71.288)" fill="url(#linear-gradient-14)"/>
            <path id="Path_28" data-name="Path 28" d="M285.678,85.734a4.341,4.341,0,0,1-3.141-.977,3.99,3.99,0,0,1-1-2.972V80.039q0-3.953,4.138-3.949a4.281,4.281,0,0,1,3.114.977,4.014,4.014,0,0,1,.984,2.972v1.745Q289.775,85.737,285.678,85.734Zm2.689-3.949V80.039a2.8,2.8,0,0,0-.6-2.015,2.9,2.9,0,0,0-2.089-.6,3.008,3.008,0,0,0-2.116.6,2.76,2.76,0,0,0-.613,2.015v1.745a2.741,2.741,0,0,0,.613,2.015,2.964,2.964,0,0,0,2.116.6,2.909,2.909,0,0,0,2.089-.6A2.761,2.761,0,0,0,288.367,81.785Z" transform="translate(-195.751 -72.377)" fill="url(#linear-gradient-14)"/>
            <path id="Path_29" data-name="Path 29" d="M313.626,75.629a3.96,3.96,0,0,1-.647,2.433,3.1,3.1,0,0,1-2.1,1.078l2.783,4.434c.162.236.222.4.168.492s-.222.135-.505.135h-.209a1.442,1.442,0,0,1-.66-.121,1.473,1.473,0,0,1-.472-.5L309.3,79.255h-3.1v4.306a.522.522,0,0,1-.64.64h-.189a.522.522,0,0,1-.64-.64V74.005a2.16,2.16,0,0,1,.478-1.543,2.105,2.105,0,0,1,1.55-.492h2.9a4.344,4.344,0,0,1,3.039.883,3.659,3.659,0,0,1,.93,2.763Zm-3.969-2.278h-2.574a.908.908,0,0,0-.674.209.948.948,0,0,0-.209.674V77.88h3.457a2.823,2.823,0,0,0,1.948-.519,2.3,2.3,0,0,0,.553-1.739,2.377,2.377,0,0,0-.546-1.766A2.9,2.9,0,0,0,309.656,73.352Z" transform="translate(-203.312 -71.033)" fill="url(#linear-gradient-14)"/>
            <path id="Path_30" data-name="Path 30" d="M328.628,79.854a7.72,7.72,0,0,1-.054,1.018.743.743,0,0,1-.168.472.816.816,0,0,1-.505.115h-5.681v.566a2.219,2.219,0,0,0,.687,1.833,3.585,3.585,0,0,0,2.244.553,9.386,9.386,0,0,0,2.554-.357.536.536,0,0,1,.472.02.614.614,0,0,1,.135.472v.168a.712.712,0,0,1-.1.431.988.988,0,0,1-.478.243,8.707,8.707,0,0,1-2.574.357,4.88,4.88,0,0,1-3.3-.93,3.835,3.835,0,0,1-1.045-3V80.069c0-2.642,1.321-3.969,3.969-3.969a3.961,3.961,0,0,1,2.871.957,3.72,3.72,0,0,1,.984,2.8Zm-6.416-.209v.62h5.075v-.62q0-2.295-2.541-2.291t-2.541,2.291Z" transform="translate(-208.555 -72.38)" fill="url(#linear-gradient-14)"/>
            <path id="Path_31" data-name="Path 31" d="M342.277,79.042v3.72a2.626,2.626,0,0,1-.944,2.264,5.016,5.016,0,0,1-2.992.708,4.2,4.2,0,0,1-2.622-.708,2.51,2.51,0,0,1-.91-2.116,2.4,2.4,0,0,1,.93-2.1,5.161,5.161,0,0,1,2.9-.647h2.217V79.042a1.47,1.47,0,0,0-.6-1.307,3.4,3.4,0,0,0-1.86-.4,9.265,9.265,0,0,0-2.069.209.609.609,0,0,1-.472-.027.553.553,0,0,1-.135-.445v-.148a.666.666,0,0,1,.115-.445.857.857,0,0,1,.452-.2,9.146,9.146,0,0,1,2.029-.189q3.953,0,3.949,2.952Zm-1.409,3.666V81.279h-2.2a3.562,3.562,0,0,0-1.874.377,1.39,1.39,0,0,0-.573,1.26q0,1.6,2.1,1.6a3.535,3.535,0,0,0,1.954-.4A1.579,1.579,0,0,0,340.869,82.708Z" transform="translate(-213.12 -72.377)" fill="url(#linear-gradient-14)"/>
            <path id="Path_32" data-name="Path 32" d="M348.99,81.343V71.187a.756.756,0,0,1,.115-.492c.074-.081.236-.115.492-.115h.209a.737.737,0,0,1,.479.115.688.688,0,0,1,.121.492V81.1c0,.95.317,1.429.957,1.429h.094a.893.893,0,0,1,.478.081q.1.081.1.4v.135a.9.9,0,0,1-.1.5.626.626,0,0,1-.425.2,1.525,1.525,0,0,1-.337.02,2.067,2.067,0,0,1-1.611-.64A2.717,2.717,0,0,1,348.99,81.343Z" transform="translate(-217.744 -70.58)" fill="url(#linear-gradient-14)"/>
            <path id="Path_33" data-name="Path 33" d="M356.484,70.7a.856.856,0,0,1,.64.27.9.9,0,0,1,.263.647.9.9,0,0,1-.9.9.926.926,0,0,1-.667-.263.888.888,0,0,1,0-1.287A.915.915,0,0,1,356.484,70.7Zm-.714,12.488V75.121a.737.737,0,0,1,.115-.478.688.688,0,0,1,.492-.121h.209a.482.482,0,0,1,.6.6v8.067a.712.712,0,0,1-.121.492.737.737,0,0,1-.479.115h-.209a.756.756,0,0,1-.492-.115C355.8,83.606,355.769,83.444,355.769,83.188Z" transform="translate(-219.88 -70.619)" fill="url(#linear-gradient-14)"/>
            <path id="Path_34" data-name="Path 34" d="M360.34,76.012v-.094a.659.659,0,0,1,.1-.431.634.634,0,0,1,.4-.148l1.072-.148.209-1.934a.57.57,0,0,1,.135-.4.672.672,0,0,1,.431-.1h.135a.405.405,0,0,1,.505.505V75.19h3.046a.7.7,0,0,1,.472.115.69.69,0,0,1,.115.472v.168a.7.7,0,0,1-.115.472.69.69,0,0,1-.472.115h-3.046v4.778a2.263,2.263,0,0,0,.425,1.516,1.661,1.661,0,0,0,1.307.478,5.846,5.846,0,0,0,1.671-.189.544.544,0,0,1,.445.027.612.612,0,0,1,.121.458v.168a.671.671,0,0,1-.121.431.879.879,0,0,1-.458.243,6.216,6.216,0,0,1-1.638.189q-3.164,0-3.161-3.329V76.524h-1.072a.614.614,0,0,1-.411-.094.627.627,0,0,1-.094-.411Z" transform="translate(-221.445 -71.288)" fill="url(#linear-gradient-14)"/>
            <path id="Path_35" data-name="Path 35" d="M373.72,76.99l1.766,6.49a1.805,1.805,0,0,0,.4.829,1.083,1.083,0,0,0,.741.209.928.928,0,0,0,.667-.222,1.732,1.732,0,0,0,.384-.809L379.246,77a.864.864,0,0,1,.243-.492.9.9,0,0,1,.546-.135h.168c.263,0,.425.04.492.121s.061.249,0,.5l-2.163,8.653q-.96,3.8-3.781,3.99a.61.61,0,0,1-.458-.074.761.761,0,0,1-.216-.452l-.04-.168c-.047-.216-.04-.357.027-.425a.839.839,0,0,1,.458-.142,2.418,2.418,0,0,0,1.59-.768,5.317,5.317,0,0,0,1-2.069,1.973,1.973,0,0,1-.943.209,1.7,1.7,0,0,1-1.328-.492,4.372,4.372,0,0,1-.782-1.712L372.278,77c-.061-.249-.061-.418,0-.5s.222-.121.472-.121h.148a.962.962,0,0,1,.546.121.842.842,0,0,1,.263.5Z" transform="translate(-225.323 -72.468)" fill="url(#linear-gradient-14)"/>
          </g>
        </g>
      </g>
    </g>
  </g>
</svg>
