<svg xmlns="http://www.w3.org/2000/svg" width="283" height="76.174" viewBox="0 0 283 76.174">
  <path id="Path_493" data-name="Path 493" d="M271.136,56.5H270.07c-2.131,0-3.729,1.065-5.327,1.065-3.2,0-5.86,1.065-8.523,1.6h0s-4.261,0-6.392,1.065h-3.2c1.6-.533,4.261,0,4.794-1.6h0a8.762,8.762,0,0,0,5.327-.533h1.065a3.914,3.914,0,0,0,3.2-1.065c1.065,0,2.663,0,2.663-1.6h1.065c1.6.533,1.6,0,2.131-1.065h1.6a4.039,4.039,0,0,0,2.131-1.065h3.729c1.6,0,3.2-1.065,5.327-1.6h.533s1.065-.533,1.065-1.065h.533c.533,0,1.6,0,1.065-1.065,0-.533-1.065,0-1.6,0h-.533V48.514h-2.131c-.533,0-.533-1.065-.533-1.6h0s.533,0,0-1.065h0v-1.6h.533V41.589c-.533-1.065.533-2.131,0-3.2V37.328h0a.738.738,0,0,0,0-1.065h-1.065c.533-1.065-1.065-1.065-1.6-1.065V33.6c1.065-1.065,1.065-2.663,1.6-4.261,0,0,0-1.065-.533-.533-.533-.533,1.065-.533.533-1.065h0V23.478h0s1.6-1.065,1.065-2.131h0V17.619h-.533a4.8,4.8,0,0,0-.533-2.663c0-1.6-1.6,0-2.131,0v-.533c-2.663,0-5.327-.533-7.458.533a9.065,9.065,0,0,0-3.729.533c-3.729,0-6.925,1.6-10.654,1.065h-2.663a1.65,1.65,0,0,0-.533-1.065c1.065-.533,0-1.6,0-2.131,1.065-.533,0-1.065,0-2.131h0s0-.533-1.065-.533c-1.6-1.065-3.2-1.6-4.794-1.065-1.6,0-3.2,1.065-5.327,1.065-1.6,0-3.2,1.065-4.794,0h0c0,1.065-1.6,1.065-2.663,1.6h0s0-1.065-.533-1.065h-1.6c-1.065.533-3.2,1.065-4.261,1.6-1.6.533-3.729.533-4.794,1.6H220c-2.663,0-4.261,1.065-6.925,1.6h-.533s-2.131,1.065-2.663.533a16.422,16.422,0,0,0-5.327.533H202.42c-1.065,0-.533,0,0-.533h.533c1.065,0,3.2,0,2.663-1.6h1.065c.533.533,1.6,0,2.131,0s0-.533,0-1.065h2.131v-.533h-2.663c-2.663,0-4.794,1.065-6.925,1.6a4.8,4.8,0,0,0-2.663.533h-.533c-.533,0-1.065.533-1.6,0-.533,0,0-.533,0-1.065h0a3.72,3.72,0,0,1,2.131-1.065,3.2,3.2,0,0,0,2.131-.533h1.065c1.6,0,2.663,0,3.729-1.065a14.748,14.748,0,0,0-4.794.533h-1.6a11.36,11.36,0,0,0-6.392,1.6c-1.065,0-2.131.533-3.2,0h-3.2c-1.065,0-2.131,1.065-3.2,1.6a6.756,6.756,0,0,0-3.2.533h-2.663s3.2-1.065,4.261-1.6h0c2.663-.533,5.327-1.6,7.99-2.131l1.6-1.6H192.3v-.533h-1.065s-2.663.533-4.261,1.065a4.8,4.8,0,0,0-2.663.533h-1.6l-2.131,1.065h-3.2c-2.131,1.065-5.327,0-7.458,1.6h-1.065s0-.533-.533,0c-1.065,0-1.6.533-2.663,1.065H163c-1.065,0-2.131,0-2.663.533h-3.729V14.955h0c.533-1.065,0-1.065-1.065-1.065h1.065c1.065,0,.533-.533.533-1.065s-1.065,0-1.6,0H152.88a10.4,10.4,0,0,0,3.729-.533c-1.065,0-2.131-.533-3.2,0-.533,0-1.6,0-1.065-.533v-1.6c0-1.065-1.065-.533-1.6,0-1.065-.533-1.6,0-2.131,0h0l-.533.533c-.533,0-1.6,0-1.6-.533h-1.6c-2.663.533-5.327,1.6-7.99,1.6h-1.065V10.694h0a3.978,3.978,0,0,1,1.6-1.6s1.065-.533,1.6,0c1.6,1.065,2.663,0,4.261,0,0,0,1.065-.533,1.6,0h2.131l-.533-.533h-4.261c-1.065,0-2.663.533-4.261.533s-.533-.533-.533-1.6c-1.065,1.065-2.663,0-3.729,1.065h-3.2c-.533-1.065-2.131-1.065-3.2-.533h0s1.065,0,1.065-.533h-2.131c-1.065-.533-2.131-1.6-3.729-1.065h0c-.533,0-.533,0-.533-.533h.533s1.065,0,.533-.533h-4.794s-1.065,0-1.065.533h-4.261c0-1.065,2.131-.533,3.2-1.065,1.6,0,0-.533,0-1.065H112.4c-2.131-.533-2.131-.533-3.2.533h0a4.159,4.159,0,0,0-2.663,0H106c-2.663,0-5.327,1.6-7.99,2.131a10.384,10.384,0,0,0-4.261.533c-1.065,0-1.6-.533-2.131,0H90.556s.533-1.065-.533-.533H88.958c-2.131,0-3.2,1.065-4.794.533C83.631,5.9,83.1,5.9,81.5,6.965h0s-2.131,0-2.663.533H63.922c-1.6.533-3.729,0-5.327,1.065h0c-1.065-.533-2.131,0-3.2,0H53.268c-1.6,0-3.2,0-4.261-1.065H46.343c0-1.065-1.6-.533-2.663-1.065H41.549a39.9,39.9,0,0,0-8.523,2.131h0a35.188,35.188,0,0,0-7.99,2.663c-1.065,0-.533,1.065-1.065,1.065h0s-2.131,0-2.663,1.065l.533.533h0a.522.522,0,0,0-.533.533h0l.533-.533c-1.065,0-1.6,0-1.6,1.065a11.644,11.644,0,0,1-2.663,1.6c-2.131,1.6-4.794,3.2-6.925,4.794h0v.533a1.146,1.146,0,0,0-1.065,1.065H8.523c-1.065,1.6-2.663,2.663-2.663,4.261s0,1.6,2.131,1.065H5.86s-1.065,1.065-1.065,1.6c0,2.131-1.6,4.261-3.2,6.392C0,33.066,0,35.73,0,37.861a1.021,1.021,0,0,0,1.6.533c1.6-1.065,3.729-.533,4.794-2.131,1.6,0,2.663-1.065,4.261-1.065.533,0,1.065,0,1.6-1.065,1.065-1.065,3.2-1.065,4.794-1.065V35.2h0c0,.533-1.6,1.065-2.663,1.6h0s-2.131.533-2.131,1.065c0,1.065-.533,2.663,0,3.729s0,2.131-1.065,3.2c-.533,0-.533,1.065,0,1.6h0c-.533.533-.533,1.065,0,2.131a4.038,4.038,0,0,0-1.065,2.131v1.6c-.533.533,0,1.6,0,2.131v2.663c-.533.533.533,1.065,1.065,1.6A3.294,3.294,0,0,0,14.915,59.7a10.385,10.385,0,0,0,4.261-.533,3.2,3.2,0,0,0,2.131-.533c-1.065-.533-2.131,0-2.663,0h3.2A45.957,45.957,0,0,0,36.755,56.5h1.6a.738.738,0,0,1,1.065,0h0c-1.065,1.065,0,2.131-.533,3.2h0v2.131h0c0,1.6-.533,2.663,0,4.261,0,0-.533,1.065,0,1.6l2.131,2.131h7.458a79.473,79.473,0,0,0,11.186-1.065,6.756,6.756,0,0,0,3.2-.533h.533c1.065,0,2.663,0,3.2-.533h3.2c.533-.533,2.131,0,2.663-1.065h0l.533-.533c1.6,0,3.2.533,4.794,0h1.065v1.065c0,2.663,3.2,3.729,6.925,3.729h.533c.533,0,1.065.533,2.131.533,2.131,0,3.729-.533,5.86,0,1.6.533,3.729,0,5.327,0h2.131c1.6,0,3.729,0,4.794-1.6h0a2.63,2.63,0,0,1,1.6.533,8.718,8.718,0,0,0,6.392-1.065h1.065c.533-.533,1.6-1.065,2.131-2.131h1.065v1.065h1.6c.533,0,0,1.065,0,1.6v3.2c0,.533,0,1.065,1.065,1.6h2.131a16.422,16.422,0,0,0,5.327-.533h7.458a16.4,16.4,0,0,0,6.925-1.6h4.261a.522.522,0,0,0,.533-.533c2.663,0,4.794,0,6.925-1.065a18.926,18.926,0,0,0,5.327-1.065c1.6-.533,3.2,0,4.794,0,0,1.065-1.065,1.065-2.131,1.065s-2.663,1.065-2.131,1.6c0,1.065,0,1.065-1.065,1.6-.533.533,0,1.6,0,2.131h5.327a19.15,19.15,0,0,0,5.86-1.065h1.6a21.374,21.374,0,0,0,7.99-1.6h3.729c3.729-.533,6.925-1.6,11.186-2.131a9.065,9.065,0,0,0,3.729-.533,10.4,10.4,0,0,0,3.729-.533c3.2-.533,6.925-.533,10.121-1.6,1.6,0,3.729,0,4.794-.533h0s2.131,0,2.663-1.065c2.131.533,3.729,0,5.327,0a6.756,6.756,0,0,0,3.2-.533h4.261l-.533.533h-1.065c-2.131,0-4.261,1.065-6.392,1.6-1.065,0-2.663,0-2.663,1.6h0a3.914,3.914,0,0,0-3.2,1.065c-.533,0,0,1.065,0,1.065a14.748,14.748,0,0,0,4.794-.533h3.2a7.916,7.916,0,0,0,4.794-1.065,6.405,6.405,0,0,0,4.261-1.065h.533c2.131,0,3.729-1.065,5.86-1.065h-.533a34.454,34.454,0,0,0-6.925,2.131c-1.065,0-2.131,0-2.663,1.065s-2.131,1.065-3.2,1.6c-.533,0-1.6,0-1.6.533s1.065,1.065,2.131.533a7.9,7.9,0,0,0,3.729-.533c2.131,0,4.261,0,6.392-1.6H244.5c2.131,1.065,4.261.533,6.392,0a23.072,23.072,0,0,0-2.663-.533h0c0-.533,1.065-.533,1.6-.533h0a13.084,13.084,0,0,0,7.99-2.663h2.131a34.455,34.455,0,0,0,6.925-2.131h1.065c1.065-2.131,1.065-2.663-2.131-3.2,1.065,0,2.663-1.065,3.729-1.6h3.2s3.2-.533,4.261-1.6a1.957,1.957,0,0,0,1.6-.533H277a33.448,33.448,0,0,0-10.121,1.6ZM234.913,70.887ZM80.435,68.756ZM40.484,66.625ZM110.8,2.7Zm65.52,15.98ZM275.4,28.8h0v0ZM91.089,3.236h0V4.3h0s.533,0,.533-1.065Zm79.9,64.455Zm27.7-49.54ZM142.759,61.3Zm-15.448,4.794ZM112.4,62.9h-1.065a2.63,2.63,0,0,0,1.6-.533H112.4Zm-5.86-57.53Zm15.98,5.327Zm138.5,13.317Zm-120.386,26.1ZM99.612,9.628ZM138.5,19.749ZM95.35,58.1Zm37.288-4.261Zm-5.86-11.186ZM107.069,57.037ZM21.84,18.151Zm22.905,0Zm87.893,30.363Zm-4.794,3.729Zm3.2-5.86v.533h-.533Zm1.065-1.6Zm-40.484,0ZM59.661,34.664Zm70.314,0ZM95.883,38.393ZM62.324,23.478Zm51.138,4.261Zm-4.261.533Zm-9.056,7.458ZM104.939,32Zm-5.327,0h0Zm16.513-5.327ZM109.2,28.8Zm5.86,5.327Zm3.2-7.99Zm-14.915,2.131ZM85.229,20.815Zm.533,0Zm-2.663,1.6ZM76.174,35.2ZM67.651,23.478Zm-4.794.533ZM60.726,42.122Zm28.232-3.729h0Zm29.83-1.6Zm-6.925-11.186h0s0-.533-1.065-.533C110.8,25.076,111.863,25.076,111.863,25.609ZM92.687,18.684Zm1.065,23.971Zm10.121,10.121ZM124.115,36.8ZM77.239,21.88ZM53.268,33.6Zm2.663,4.261Zm0,19.709ZM52.2,56.5Zm50.6-5.86ZM124.115,36.8l.533.533h-.533Zm2.131,5.86Zm-6.392-19.709Zm-52.2-8.523Zm-11.719,7.99h0s-1.065-.533-1.065-1.065c0,0,1.065,0,1.065.533Zm-5.86-2.663ZM32.494,43.187ZM30.363,26.674Zm3.729,16.513Zm5.327-7.99Zm2.131-10.121ZM27.167,30.4ZM52.2,59.7ZM58.6,60.766Zm4.261-13.85Zm21.307-1.6h-.533a1.65,1.65,0,0,1,.533-1.065v1.065Zm26.1,3.2Zm17.046,4.794Zm24.5-18.644Zm27.167-9.056Zm79.37,1.6ZM151.282,35.2Zm103.873,1.6h-2.131a5.366,5.366,0,0,0,1.6.533Zm.533.533Zm-28.765,2.131ZM221.6,29.338h0v.533h0ZM240.24,35.2Zm-6.925,3.2Zm3.729-.533Zm1.6-1.065Zm-.533,0Zm-31.961,2.131Zm-38.353.533ZM187.5,42.122Zm-14.915.533Zm12.784-4.794Zm28.232-3.2Zm-.533.533ZM174.72,33.6Zm5.859,15.448Zm2.663-2.663Zm11.719,0Zm9.588,3.729Zm20.242-12.784Zm-62.324,3.2ZM193.9,46.916Zm24.5-7.99Zm11.186-13.317Zm-22.905,7.458ZM178.449,52.776Zm75.108-12.784Zm3.2-12.784h0Zm-1.6,0Zm-3.2-2.131Zm-2.131,3.2Zm-26.1-3.729ZM211.475,29.87Zm-50.6,6.392ZM157.674,32Zm29.3,17.579Zm36.222-5.86Zm23.438,2.131Zm1.6-18.644Zm-87.36,5.327ZM157.141,32h0Zm-2.131,0Zm-1.6,4.794Zm-6.392-3.729h1.065s-.533.533-.533,0ZM109.733,20.282Zm-50.6-4.261Zm-8.523,0h0Zm-6.392,5.327ZM32.494,14.422s0-.533-1.065-1.065h0S31.961,13.357,32.494,14.422ZM29.3,26.674ZM39.951,39.991ZM87.36,52.243Zm0,0ZM92.687,59.7ZM138.5,47.981Zm1.065-1.6v-.533h-.533Zm29.3,6.925Zm0,1.6Zm56.464-5.86ZM218.4,21.88Zm-13.317-.533ZM151.815,32ZM108.667,19.749Zm-81.5,4.794h0Zm0,11.186ZM26.1,37.861Zm1.065,2.131Zm13.317,5.327ZM61.791,62.364Zm5.86-5.86Zm41.549-1.6Zm9.056-9.056Zm7.458,5.86ZM140.1,49.58Zm5.86-9.588ZM177.916,57.57Zm15.98-3.729ZM257.286,43.72ZM239.175,21.88Zm-53.8-5.327ZM24.5,27.74Zm0,15.98Zm3.729-3.729Zm7.458,6.925Zm10.654-5.327Zm3.729,20.242ZM73.51,60.766ZM97.481,58.1Zm28.765,2.131Zm1.065,1.6Zm37.288,0Zm60.726-7.458Zm6.392-43.147ZM216.269,21.347Zm-22.905-1.6Zm0,0Zm-43.68,7.99Zm-19.177-9.056ZM85.229,8.03h0Zm-43.147-1.6ZM19.177,21.88Zm19.177,24.5v.533H37.82ZM56.464,67.158Zm29.83-5.86ZM106,63.962Zm3.729-2.663Zm12.252-14.915h0ZM123.05,58.1Zm12.784,1.6Zm39.951,3.729Zm30.9-4.794h0Zm52.2-6.392ZM242.9,19.749h0Zm-28.232-5.86h0Zm-30.363,2.663Zm-23.971,4.794ZM126.246,11.226ZM99.612,6.432ZM79.9,5.367ZM38.886,50.645Zm6.392,1.065Zm1.065,14.382Zm13.85,1.065ZM79.37,61.3Zm4.794,3.2s1.065-1.6.533-2.663h0s-1.065,1.6-.533,2.663Zm49.54-1.065Zm4.261,0Zm25.569,0Zm110.8-35.69ZM258.351,13.89l-1.065.533h.533ZM244.5,11.759Zm-21.307-1.6Zm-15.98,4.261Zm-26.1,2.663Zm-33.559-.533h0Zm-.533-2.131Zm1.065-2.131Zm-.533,1.6Zm0,0Zm-5.327-2.663Zm-2.663,0Zm-9.056-1.065ZM117.723,3.236Zm-10.654,0Zm-12.252,0ZM60.726,8.563ZM44.213,6.432ZM39.951,5.367ZM31.961,7.5ZM20.242,24.011Zm-1.065,2.663h0Zm3.2,13.317Zm-3.729,8.523Zm24.5,10.121Zm4.794,10.654ZM95.35,70.354ZM110.8,67.691h0Zm54.866-1.065Zm19.709,1.6Zm10.654-3.729Zm22.905-.533Zm46.876-8.523Zm12.784-7.99ZM276.462,29.87Zm-7.99-16.513Zm0,0ZM196.56,18.684Zm-14.915-1.6ZM123.05,2.7ZM84.7,3.769V3.236h0ZM37.82,3.236h0ZM11.719,13.89Zm3.2,25.569Zm2.663,7.99Zm-5.86,4.794ZM20.242,56.5ZM43.68,65.56Zm0,1.065ZM74.043,65.56Zm38.886,1.6Zm8.523-2.663Zm6.925,7.99Zm.533,0v0Zm26.634-6.925Zm20.242,4.794h0ZM239.175,62.9Zm15.98-2.663Zm-.533-1.065Zm21.84-40.484ZM273.8,10.161h0Zm-93.22,4.794Zm-1.6,1.065Zm-9.588-1.6h0Zm-19.177-2.131Zm-4.794-1.6ZM128.909,6.432ZM39.419.04ZM18.111,8.03ZM6.392,17.619Zm0,4.261Zm9.056,24.5ZM59.661,70.354Zm51.67-1.6Zm31.961,3.729Zm19.709,0Zm10.654-1.065ZM249.3,65.027Zm0,4.261Zm18.644-8.523Z" transform="translate(0 -0.04)" fill="#111"/>
</svg>
