<svg xmlns="http://www.w3.org/2000/svg" width="20.617" height="20.606" viewBox="0 0 20.617 20.606">
  <g id="svgexport-17_4_" data-name="svgexport-17 (4)" transform="translate(0 20.606) rotate(-90)">
    <g id="_19" data-name="19" transform="translate(0)">
      <path id="Path_40" data-name="Path 40" d="M1.481,20.524A1.472,1.472,0,0,1,.436,18.006l7.8-7.788L.436,2.43A1.472,1.472,0,0,1,2.511.354l8.833,8.833a1.472,1.472,0,0,1,0,2.076L2.511,20.1A1.472,1.472,0,0,1,1.481,20.524Z" transform="translate(8.833 0.094)" fill="#fff"/>
      <path id="Path_41" data-name="Path 41" d="M1.481,20.617A1.472,1.472,0,0,1,.436,18.1l7.8-7.788L.436,2.524A1.478,1.478,0,0,1,2.526.433L11.36,9.266a1.472,1.472,0,0,1,0,2.076L2.526,20.176A1.472,1.472,0,0,1,1.481,20.617Z" transform="translate(0 0)" fill="#fff"/>
    </g>
  </g>
</svg>
