<svg xmlns="http://www.w3.org/2000/svg" width="17.4" height="17.391" viewBox="0 0 17.4 17.391">
  <g id="svgexport-17_4_" data-name="svgexport-17 (4)" transform="translate(0 17.391) rotate(-90)">
    <g id="_19" data-name="19">
      <path id="Path_40" data-name="Path 40" d="M1.25,17.321A1.242,1.242,0,0,1,.368,15.2L6.953,8.623.368,2.051A1.242,1.242,0,0,1,2.119.3L9.574,7.754a1.242,1.242,0,0,1,0,1.752L2.119,16.96A1.242,1.242,0,0,1,1.25,17.321Z" transform="translate(7.455 0.079)" fill="#111"/>
      <path id="Path_41" data-name="Path 41" d="M1.25,17.4a1.242,1.242,0,0,1-.882-2.125L6.953,8.7.368,2.13A1.248,1.248,0,0,1,2.132.365L9.587,7.82a1.242,1.242,0,0,1,0,1.752L2.132,17.027A1.242,1.242,0,0,1,1.25,17.4Z" transform="translate(0 0)" fill="#111"/>
    </g>
  </g>
</svg>
